<svg xmlns="http://www.w3.org/2000/svg" width="611.269" height="394.692"><defs><filter id="prefix__a" x="46.211" y="54.831" width="524.2" height="43.329" filterUnits="userSpaceOnUse"><feOffset/><feGaussianBlur stdDeviation="3" result="blur-2"/><feFlood flood-color="#f312d2"/><feComposite operator="in" in2="blur-2"/><feComposite in="SourceGraphic"/></filter><filter id="prefix__b" x="46.211" y="136.852" width="524.2" height="43.329" filterUnits="userSpaceOnUse"><feOffset/><feGaussianBlur stdDeviation="3" result="blur-3"/><feFlood flood-color="#f312d2"/><feComposite operator="in" in2="blur-3"/><feComposite in="SourceGraphic"/></filter><filter id="prefix__c" x="46.211" y="218.874" width="524.2" height="43.329" filterUnits="userSpaceOnUse"><feOffset/><feGaussianBlur stdDeviation="3" result="blur-4"/><feFlood flood-color="#f312d2"/><feComposite operator="in" in2="blur-4"/><feComposite in="SourceGraphic"/></filter><filter id="prefix__d" x="485.268" y="-8.993" width="60.218" height="57.771" filterUnits="userSpaceOnUse"><feOffset/><feGaussianBlur stdDeviation="3" result="blur-5"/><feFlood flood-color="#f312d2"/><feComposite operator="in" in2="blur-5"/><feComposite in="SourceGraphic"/></filter><filter id="prefix__e" x="526.273" y="29.572" width="68.257" height="45.178" filterUnits="userSpaceOnUse"><feOffset/><feGaussianBlur stdDeviation="3" result="blur-6"/><feFlood flood-color="#f312d2"/><feComposite operator="in" in2="blur-6"/><feComposite in="SourceGraphic"/></filter><filter id="prefix__f" x="568.746" y="2.114" width="46.215" height="59.65" filterUnits="userSpaceOnUse"><feOffset/><feGaussianBlur stdDeviation="3" result="blur-7"/><feFlood flood-color="#f312d2"/><feComposite operator="in" in2="blur-7"/><feComposite in="SourceGraphic"/></filter><filter id="prefix__g" x="575.328" y="42.558" width="44.946" height="84.191" filterUnits="userSpaceOnUse"><feOffset/><feGaussianBlur stdDeviation="3" result="blur-8"/><feFlood flood-color="#f312d2"/><feComposite operator="in" in2="blur-8"/><feComposite in="SourceGraphic"/></filter><filter id="prefix__h" x="512.603" y="77.504" width="92.382" height="76.105" filterUnits="userSpaceOnUse"><feOffset/><feGaussianBlur stdDeviation="3" result="blur-9"/><feFlood flood-color="#f312d2"/><feComposite operator="in" in2="blur-9"/><feComposite in="SourceGraphic"/></filter><filter id="prefix__i" x="585.781" y="70.104" width="34.488" height="99.611" filterUnits="userSpaceOnUse"><feOffset/><feGaussianBlur stdDeviation="3" result="blur-10"/><feFlood flood-color="#f312d2"/><feComposite operator="in" in2="blur-10"/><feComposite in="SourceGraphic"/></filter><filter id="prefix__j" x="426.566" y="31.505" width="92.381" height="42.52" filterUnits="userSpaceOnUse"><feOffset/><feGaussianBlur stdDeviation="3" result="blur-11"/><feFlood flood-color="#f312d2"/><feComposite operator="in" in2="blur-11"/><feComposite in="SourceGraphic"/></filter><filter id="prefix__k" x="470.791" y="-9.002" width="74.691" height="59.716" filterUnits="userSpaceOnUse"><feOffset/><feGaussianBlur stdDeviation="3" result="blur-12"/><feFlood flood-color="#f312d2"/><feComposite operator="in" in2="blur-12"/><feComposite in="SourceGraphic"/></filter><filter id="prefix__l" x="334.891" y="22.332" width="92.383" height="51.693" filterUnits="userSpaceOnUse"><feOffset/><feGaussianBlur stdDeviation="3" result="blur-13"/><feFlood flood-color="#f312d2"/><feComposite operator="in" in2="blur-13"/><feComposite in="SourceGraphic"/></filter><filter id="prefix__m" x="342.126" y="-8.993" width="103.641" height="50.542" filterUnits="userSpaceOnUse"><feOffset/><feGaussianBlur stdDeviation="3" result="blur-14"/><feFlood flood-color="#f312d2"/><feComposite operator="in" in2="blur-14"/><feComposite in="SourceGraphic"/></filter><filter id="prefix__n" x="375.096" y="-9" width="114.903" height="59.714" filterUnits="userSpaceOnUse"><feOffset/><feGaussianBlur stdDeviation="3" result="blur-15"/><feFlood flood-color="#f312d2"/><feComposite operator="in" in2="blur-15"/><feComposite in="SourceGraphic"/></filter><filter id="prefix__o" x="181.305" y="-8.993" width="69.061" height="42.933" filterUnits="userSpaceOnUse"><feOffset/><feGaussianBlur stdDeviation="3" result="blur-16"/><feFlood flood-color="#f312d2"/><feComposite operator="in" in2="blur-16"/><feComposite in="SourceGraphic"/></filter><filter id="prefix__p" x="225.534" y="14.734" width="81.122" height="59.299" filterUnits="userSpaceOnUse"><feOffset/><feGaussianBlur stdDeviation="3" result="blur-17"/><feFlood flood-color="#f312d2"/><feComposite operator="in" in2="blur-17"/><feComposite in="SourceGraphic"/></filter><filter id="prefix__q" x="287.448" y="-8.998" width="106.856" height="50.539" filterUnits="userSpaceOnUse"><feOffset/><feGaussianBlur stdDeviation="3" result="blur-18"/><feFlood flood-color="#f312d2"/><feComposite operator="in" in2="blur-18"/><feComposite in="SourceGraphic"/></filter><filter id="prefix__r" x="275.558" y="22.333" width="78.54" height="51.692" filterUnits="userSpaceOnUse"><feOffset/><feGaussianBlur stdDeviation="3" result="blur-19"/><feFlood flood-color="#f312d2"/><feComposite operator="in" in2="blur-19"/><feComposite in="SourceGraphic"/></filter><filter id="prefix__s" x="68.522" y="-8.993" width="90.181" height="83.026" filterUnits="userSpaceOnUse"><feOffset/><feGaussianBlur stdDeviation="3" result="blur-20"/><feFlood flood-color="#f312d2"/><feComposite operator="in" in2="blur-20"/><feComposite in="SourceGraphic"/></filter><filter id="prefix__t" x="139.488" y="-9" width="105.245" height="66.787" filterUnits="userSpaceOnUse"><feOffset/><feGaussianBlur stdDeviation="3" result="blur-21"/><feFlood flood-color="#f312d2"/><feComposite operator="in" in2="blur-21"/><feComposite in="SourceGraphic"/></filter><filter id="prefix__u" x="94.132" y="38.576" width="117.151" height="35.449" filterUnits="userSpaceOnUse"><feOffset/><feGaussianBlur stdDeviation="3" result="blur-22"/><feFlood flood-color="#f312d2"/><feComposite operator="in" in2="blur-22"/><feComposite in="SourceGraphic"/></filter><filter id="prefix__v" x=".469" y="-9.001" width="87.251" height="54.215" filterUnits="userSpaceOnUse"><feOffset/><feGaussianBlur stdDeviation="3" result="blur-23"/><feFlood flood-color="#f312d2"/><feComposite operator="in" in2="blur-23"/><feComposite in="SourceGraphic"/></filter><filter id="prefix__w" x="-8.692" y="-8.995" width="167.393" height="83.031" filterUnits="userSpaceOnUse"><feOffset/><feGaussianBlur stdDeviation="3" result="blur-24"/><feFlood flood-color="#f312d2"/><feComposite operator="in" in2="blur-24"/><feComposite in="SourceGraphic"/></filter><filter id="prefix__x" x="-8.992" y="150.507" width="42.242" height="83.69" filterUnits="userSpaceOnUse"><feOffset/><feGaussianBlur stdDeviation="3" result="blur-25"/><feFlood flood-color="#f312d2"/><feComposite operator="in" in2="blur-25"/><feComposite in="SourceGraphic"/></filter><filter id="prefix__y" x="-8.699" y="66.884" width="74.117" height="59.865" filterUnits="userSpaceOnUse"><feOffset/><feGaussianBlur stdDeviation="3" result="blur-26"/><feFlood flood-color="#f312d2"/><feComposite operator="in" in2="blur-26"/><feComposite in="SourceGraphic"/></filter><filter id="prefix__z" x="-8.696" y="54.825" width="74.115" height="71.924" filterUnits="userSpaceOnUse"><feOffset/><feGaussianBlur stdDeviation="3" result="blur-27"/><feFlood flood-color="#f312d2"/><feComposite operator="in" in2="blur-27"/><feComposite in="SourceGraphic"/></filter><filter id="prefix__A" x="163.611" y="77.508" width="95.436" height="47.652" filterUnits="userSpaceOnUse"><feOffset/><feGaussianBlur stdDeviation="3" result="blur-28"/><feFlood flood-color="#f312d2"/><feComposite operator="in" in2="blur-28"/><feComposite in="SourceGraphic"/></filter><filter id="prefix__B" x="14.046" y="102.801" width="87.557" height="53.253" filterUnits="userSpaceOnUse"><feOffset/><feGaussianBlur stdDeviation="3" result="blur-29"/><feFlood flood-color="#f312d2"/><feComposite operator="in" in2="blur-29"/><feComposite in="SourceGraphic"/></filter><filter id="prefix__C" x="14.048" y="107.545" width="53.377" height="89.516" filterUnits="userSpaceOnUse"><feOffset/><feGaussianBlur stdDeviation="3" result="blur-30"/><feFlood flood-color="#f312d2"/><feComposite operator="in" in2="blur-30"/><feComposite in="SourceGraphic"/></filter><filter id="prefix__D" x="556.026" y="150.507" width="64.244" height="83.69" filterUnits="userSpaceOnUse"><feOffset/><feGaussianBlur stdDeviation="3" result="blur-31"/><feFlood flood-color="#f312d2"/><feComposite operator="in" in2="blur-31"/><feComposite in="SourceGraphic"/></filter><filter id="prefix__E" x="479.636" y="161.94" width="95.602" height="76.127" filterUnits="userSpaceOnUse"><feOffset/><feGaussianBlur stdDeviation="3" result="blur-32"/><feFlood flood-color="#f312d2"/><feComposite operator="in" in2="blur-32"/><feComposite in="SourceGraphic"/></filter><filter id="prefix__F" x="356.606" y="286.419" width="111.682" height="40.077" filterUnits="userSpaceOnUse"><feOffset/><feGaussianBlur stdDeviation="3" result="blur-33"/><feFlood flood-color="#f312d2"/><feComposite operator="in" in2="blur-33"/><feComposite in="SourceGraphic"/></filter><filter id="prefix__G" x="331.273" y="161.95" width="99.217" height="54.502" filterUnits="userSpaceOnUse"><feOffset/><feGaussianBlur stdDeviation="3" result="blur-34"/><feFlood flood-color="#f312d2"/><feComposite operator="in" in2="blur-34"/><feComposite in="SourceGraphic"/></filter><filter id="prefix__H" x="378.316" y="197.237" width="120.527" height="40.831" filterUnits="userSpaceOnUse"><feOffset/><feGaussianBlur stdDeviation="3" result="blur-35"/><feFlood flood-color="#f312d2"/><feComposite operator="in" in2="blur-35"/><feComposite in="SourceGraphic"/></filter><filter id="prefix__I" x="402.844" y="161.942" width="75.897" height="76.126" filterUnits="userSpaceOnUse"><feOffset/><feGaussianBlur stdDeviation="3" result="blur-36"/><feFlood flood-color="#f312d2"/><feComposite operator="in" in2="blur-36"/><feComposite in="SourceGraphic"/></filter><filter id="prefix__J" x="459.536" y="161.942" width="95.599" height="76.126" filterUnits="userSpaceOnUse"><feOffset/><feGaussianBlur stdDeviation="3" result="blur-37"/><feFlood flood-color="#f312d2"/><feComposite operator="in" in2="blur-37"/><feComposite in="SourceGraphic"/></filter><filter id="prefix__K" x="143.102" y="160.97" width="82.336" height="66.286" filterUnits="userSpaceOnUse"><feOffset/><feGaussianBlur stdDeviation="3" result="blur-38"/><feFlood flood-color="#f312d2"/><feComposite operator="in" in2="blur-38"/><feComposite in="SourceGraphic"/></filter><filter id="prefix__L" x="155.574" y="208.053" width="130.979" height="30.015" filterUnits="userSpaceOnUse"><feOffset/><feGaussianBlur stdDeviation="3" result="blur-39"/><feFlood flood-color="#f312d2"/><feComposite operator="in" in2="blur-39"/><feComposite in="SourceGraphic"/></filter><filter id="prefix__M" x="267.343" y="161.94" width="83.136" height="76.128" filterUnits="userSpaceOnUse"><feOffset/><feGaussianBlur stdDeviation="3" result="blur-40"/><feFlood flood-color="#f312d2"/><feComposite operator="in" in2="blur-40"/><feComposite in="SourceGraphic"/></filter><filter id="prefix__N" x="225.532" y="160.97" width="84.339" height="40.982" filterUnits="userSpaceOnUse"><feOffset/><feGaussianBlur stdDeviation="3" result="blur-41"/><feFlood flood-color="#f312d2"/><feComposite operator="in" in2="blur-41"/><feComposite in="SourceGraphic"/></filter><filter id="prefix__O" x="258.1" y="161.941" width="92.379" height="70.725" filterUnits="userSpaceOnUse"><feOffset/><feGaussianBlur stdDeviation="3" result="blur-42"/><feFlood flood-color="#f312d2"/><feComposite operator="in" in2="blur-42"/><feComposite in="SourceGraphic"/></filter><filter id="prefix__P" x="267.348" y="197.24" width="154.707" height="40.827" filterUnits="userSpaceOnUse"><feOffset/><feGaussianBlur stdDeviation="3" result="blur-43"/><feFlood flood-color="#f312d2"/><feComposite operator="in" in2="blur-43"/><feComposite in="SourceGraphic"/></filter><filter id="prefix__Q" x="129.841" y="105.954" width="86.216" height="50.092" filterUnits="userSpaceOnUse"><feOffset/><feGaussianBlur stdDeviation="3" result="blur-44"/><feFlood flood-color="#f312d2"/><feComposite operator="in" in2="blur-44"/><feComposite in="SourceGraphic"/></filter><filter id="prefix__R" x="68.52" y="102.793" width="90.182" height="53.261" filterUnits="userSpaceOnUse"><feOffset/><feGaussianBlur stdDeviation="3" result="blur-45"/><feFlood flood-color="#f312d2"/><feComposite operator="in" in2="blur-45"/><feComposite in="SourceGraphic"/></filter><filter id="prefix__S" x="104.007" y="77.508" width="107.272" height="52.007" filterUnits="userSpaceOnUse"><feOffset/><feGaussianBlur stdDeviation="3" result="blur-46"/><feFlood flood-color="#f312d2"/><feComposite operator="in" in2="blur-46"/><feComposite in="SourceGraphic"/></filter><filter id="prefix__T" x="55.865" y="77.508" width="67.345" height="44.498" filterUnits="userSpaceOnUse"><feOffset/><feGaussianBlur stdDeviation="3" result="blur-47"/><feFlood flood-color="#f312d2"/><feComposite operator="in" in2="blur-47"/><feComposite in="SourceGraphic"/></filter><filter id="prefix__U" x="384.349" y="107.542" width="94.39" height="48.505" filterUnits="userSpaceOnUse"><feOffset/><feGaussianBlur stdDeviation="3" result="blur-48"/><feFlood flood-color="#f312d2"/><feComposite operator="in" in2="blur-48"/><feComposite in="SourceGraphic"/></filter><filter id="prefix__V" x="308.355" y="78.957" width="72.815" height="43.049" filterUnits="userSpaceOnUse"><feOffset/><feGaussianBlur stdDeviation="3" result="blur-49"/><feFlood flood-color="#f312d2"/><feComposite operator="in" in2="blur-49"/><feComposite in="SourceGraphic"/></filter><filter id="prefix__W" x="287.446" y="102.793" width="145.188" height="53.253" filterUnits="userSpaceOnUse"><feOffset/><feGaussianBlur stdDeviation="3" result="blur-50"/><feFlood flood-color="#f312d2"/><feComposite operator="in" in2="blur-50"/><feComposite in="SourceGraphic"/></filter><filter id="prefix__X" x="236.523" y="122.191" width="87.912" height="33.855" filterUnits="userSpaceOnUse"><feOffset/><feGaussianBlur stdDeviation="3" result="blur-51"/><feFlood flood-color="#f312d2"/><feComposite operator="in" in2="blur-51"/><feComposite in="SourceGraphic"/></filter><filter id="prefix__Y" x="426.559" y="78.957" width="63.433" height="43.049" filterUnits="userSpaceOnUse"><feOffset/><feGaussianBlur stdDeviation="3" result="blur-52"/><feFlood flood-color="#f312d2"/><feComposite operator="in" in2="blur-52"/><feComposite in="SourceGraphic"/></filter><filter id="prefix__Z" x="413.426" y="102.801" width="68.93" height="53.253" filterUnits="userSpaceOnUse"><feOffset/><feGaussianBlur stdDeviation="3" result="blur-53"/><feFlood flood-color="#f312d2"/><feComposite operator="in" in2="blur-53"/><feComposite in="SourceGraphic"/></filter><filter id="prefix__aa" x="459.533" y="91.729" width="88.898" height="64.325" filterUnits="userSpaceOnUse"><feOffset/><feGaussianBlur stdDeviation="3" result="blur-54"/><feFlood flood-color="#f312d2"/><feComposite operator="in" in2="blur-54"/><feComposite in="SourceGraphic"/></filter><filter id="prefix__ab" x="529.223" y="91.729" width="75.766" height="64.325" filterUnits="userSpaceOnUse"><feOffset/><feGaussianBlur stdDeviation="3" result="blur-55"/><feFlood flood-color="#f312d2"/><feComposite operator="in" in2="blur-55"/><feComposite in="SourceGraphic"/></filter><filter id="prefix__ac" x="550.798" y="150.513" width="69.472" height="83.685" filterUnits="userSpaceOnUse"><feOffset/><feGaussianBlur stdDeviation="3" result="blur-56"/><feFlood flood-color="#f312d2"/><feComposite operator="in" in2="blur-56"/><feComposite in="SourceGraphic"/></filter><filter id="prefix__ad" x="206.238" y="182.749" width="80.319" height="55.319" filterUnits="userSpaceOnUse"><feOffset/><feGaussianBlur stdDeviation="3" result="blur-57"/><feFlood flood-color="#f312d2"/><feComposite operator="in" in2="blur-57"/><feComposite in="SourceGraphic"/></filter><filter id="prefix__ae" x="94.133" y="200.801" width="80.644" height="37.267" filterUnits="userSpaceOnUse"><feOffset/><feGaussianBlur stdDeviation="3" result="blur-58"/><feFlood flood-color="#f312d2"/><feComposite operator="in" in2="blur-58"/><feComposite in="SourceGraphic"/></filter><filter id="prefix__af" x="62.835" y="160.97" width="67.989" height="48.64" filterUnits="userSpaceOnUse"><feOffset/><feGaussianBlur stdDeviation="3" result="blur-59"/><feFlood flood-color="#f312d2"/><feComposite operator="in" in2="blur-59"/><feComposite in="SourceGraphic"/></filter><filter id="prefix__ag" x="94.134" y="190.402" width="68.174" height="47.666" filterUnits="userSpaceOnUse"><feOffset/><feGaussianBlur stdDeviation="3" result="blur-60"/><feFlood flood-color="#f312d2"/><feComposite operator="in" in2="blur-60"/><feComposite in="SourceGraphic"/></filter><filter id="prefix__ah" x="16.192" y="197.237" width="62.63" height="42.436" filterUnits="userSpaceOnUse"><feOffset/><feGaussianBlur stdDeviation="3" result="blur-61"/><feFlood flood-color="#f312d2"/><feComposite operator="in" in2="blur-61"/><feComposite in="SourceGraphic"/></filter><filter id="prefix__ai" x="-9" y="204.632" width="46.961" height="73.24" filterUnits="userSpaceOnUse"><feOffset/><feGaussianBlur stdDeviation="3" result="blur-62"/><feFlood flood-color="#f312d2"/><feComposite operator="in" in2="blur-62"/><feComposite in="SourceGraphic"/></filter><filter id="prefix__aj" x="18.753" y="258.671" width="61.679" height="67.824" filterUnits="userSpaceOnUse"><feOffset/><feGaussianBlur stdDeviation="3" result="blur-63"/><feFlood flood-color="#f312d2"/><feComposite operator="in" in2="blur-63"/><feComposite in="SourceGraphic"/></filter><filter id="prefix__ak" x="14.047" y="160.973" width="64.771" height="55.48" filterUnits="userSpaceOnUse"><feOffset/><feGaussianBlur stdDeviation="3" result="blur-64"/><feFlood flood-color="#f312d2"/><feComposite operator="in" in2="blur-64"/><feComposite in="SourceGraphic"/></filter><filter id="prefix__al" x="196.851" y="77.506" width="130.716" height="78.549" filterUnits="userSpaceOnUse"><feOffset/><feGaussianBlur stdDeviation="3" result="blur-65"/><feFlood flood-color="#f312d2"/><feComposite operator="in" in2="blur-65"/><feComposite in="SourceGraphic"/></filter><filter id="prefix__am" x="236.527" y="242.992" width="106.587" height="43.329" filterUnits="userSpaceOnUse"><feOffset/><feGaussianBlur stdDeviation="3" result="blur-66"/><feFlood flood-color="#f312d2"/><feComposite operator="in" in2="blur-66"/><feComposite in="SourceGraphic"/></filter><filter id="prefix__an" x="280.208" y="267.117" width="95.599" height="48.945" filterUnits="userSpaceOnUse"><feOffset/><feGaussianBlur stdDeviation="3" result="blur-67"/><feFlood flood-color="#f312d2"/><feComposite operator="in" in2="blur-67"/><feComposite in="SourceGraphic"/></filter><filter id="prefix__ao" x="356.608" y="242.306" width="75.493" height="63.316" filterUnits="userSpaceOnUse"><feOffset/><feGaussianBlur stdDeviation="3" result="blur-68"/><feFlood flood-color="#f312d2"/><feComposite operator="in" in2="blur-68"/><feComposite in="SourceGraphic"/></filter><filter id="prefix__ap" x="472.4" y="242.992" width="76.029" height="49.759" filterUnits="userSpaceOnUse"><feOffset/><feGaussianBlur stdDeviation="3" result="blur-69"/><feFlood flood-color="#f312d2"/><feComposite operator="in" in2="blur-69"/><feComposite in="SourceGraphic"/></filter><filter id="prefix__aq" x="451.495" y="273.553" width="80.317" height="52.942" filterUnits="userSpaceOnUse"><feOffset/><feGaussianBlur stdDeviation="3" result="blur-70"/><feFlood flood-color="#f312d2"/><feComposite operator="in" in2="blur-70"/><feComposite in="SourceGraphic"/></filter><filter id="prefix__ar" x="566.212" y="264.368" width="48.55" height="46.235" filterUnits="userSpaceOnUse"><feOffset/><feGaussianBlur stdDeviation="3" result="blur-71"/><feFlood flood-color="#f312d2"/><feComposite operator="in" in2="blur-71"/><feComposite in="SourceGraphic"/></filter><filter id="prefix__as" x="595.555" y="214.995" width="24.714" height="68.575" filterUnits="userSpaceOnUse"><feOffset/><feGaussianBlur stdDeviation="3" result="blur-72"/><feFlood flood-color="#f312d2"/><feComposite operator="in" in2="blur-72"/><feComposite in="SourceGraphic"/></filter><filter id="prefix__at" x="550.802" y="227.9" width="69.469" height="55.662" filterUnits="userSpaceOnUse"><feOffset/><feGaussianBlur stdDeviation="3" result="blur-73"/><feFlood flood-color="#f312d2"/><feComposite operator="in" in2="blur-73"/><feComposite in="SourceGraphic"/></filter><filter id="prefix__au" x="512.607" y="291.399" width="81.927" height="35.096" filterUnits="userSpaceOnUse"><feOffset/><feGaussianBlur stdDeviation="3" result="blur-74"/><feFlood flood-color="#f312d2"/><feComposite operator="in" in2="blur-74"/><feComposite in="SourceGraphic"/></filter><filter id="prefix__av" x="231.16" y="299.34" width="78.176" height="43.549" filterUnits="userSpaceOnUse"><feOffset/><feGaussianBlur stdDeviation="3" result="blur-75"/><feFlood flood-color="#f312d2"/><feComposite operator="in" in2="blur-75"/><feComposite in="SourceGraphic"/></filter><filter id="prefix__aw" x="143.104" y="242.308" width="62.77" height="41.262" filterUnits="userSpaceOnUse"><feOffset/><feGaussianBlur stdDeviation="3" result="blur-76"/><feFlood flood-color="#f312d2"/><feComposite operator="in" in2="blur-76"/><feComposite in="SourceGraphic"/></filter><filter id="prefix__ax" x="165.761" y="264.358" width="57.263" height="70.75" filterUnits="userSpaceOnUse"><feOffset/><feGaussianBlur stdDeviation="3" result="blur-77"/><feFlood flood-color="#f312d2"/><feComposite operator="in" in2="blur-77"/><feComposite in="SourceGraphic"/></filter><filter id="prefix__ay" x="203.821" y="267.119" width="95.596" height="51.431" filterUnits="userSpaceOnUse"><feOffset/><feGaussianBlur stdDeviation="3" result="blur-78"/><feFlood flood-color="#f312d2"/><feComposite operator="in" in2="blur-78"/><feComposite in="SourceGraphic"/></filter><filter id="prefix__az" x="148.042" y="315.899" width="102.33" height="50.096" filterUnits="userSpaceOnUse"><feOffset/><feGaussianBlur stdDeviation="3" result="blur-79"/><feFlood flood-color="#f312d2"/><feComposite operator="in" in2="blur-79"/><feComposite in="SourceGraphic"/></filter><filter id="prefix__aA" x="71.412" y="242.308" width="66.416" height="44.967" filterUnits="userSpaceOnUse"><feOffset/><feGaussianBlur stdDeviation="3" result="blur-80"/><feFlood flood-color="#f312d2"/><feComposite operator="in" in2="blur-80"/><feComposite in="SourceGraphic"/></filter><filter id="prefix__aB" x="76.773" y="268.071" width="76.027" height="58.424" filterUnits="userSpaceOnUse"><feOffset/><feGaussianBlur stdDeviation="3" result="blur-81"/><feFlood flood-color="#f312d2"/><feComposite operator="in" in2="blur-81"/><feComposite in="SourceGraphic"/></filter><filter id="prefix__aC" x="133.59" y="290.127" width="89.436" height="44.981" filterUnits="userSpaceOnUse"><feOffset/><feGaussianBlur stdDeviation="3" result="blur-82"/><feFlood flood-color="#f312d2"/><feComposite operator="in" in2="blur-82"/><feComposite in="SourceGraphic"/></filter><filter id="prefix__aD" x="79.928" y="333.586" width="87.319" height="51.339" filterUnits="userSpaceOnUse"><feOffset/><feGaussianBlur stdDeviation="3" result="blur-83"/><feFlood flood-color="#f312d2"/><feComposite operator="in" in2="blur-83"/><feComposite in="SourceGraphic"/></filter><filter id="prefix__aE" x="46.218" y="307.289" width="64.766" height="55.881" filterUnits="userSpaceOnUse"><feOffset/><feGaussianBlur stdDeviation="3" result="blur-84"/><feFlood flood-color="#f312d2"/><feComposite operator="in" in2="blur-84"/><feComposite in="SourceGraphic"/></filter><filter id="prefix__aF" x="91.775" y="299.346" width="61.025" height="53.45" filterUnits="userSpaceOnUse"><feOffset/><feGaussianBlur stdDeviation="3" result="blur-85"/><feFlood flood-color="#f312d2"/><feComposite operator="in" in2="blur-85"/><feComposite in="SourceGraphic"/></filter><filter id="prefix__aG" x="12.439" y="343.96" width="54.986" height="59.731" filterUnits="userSpaceOnUse"><feOffset/><feGaussianBlur stdDeviation="3" result="blur-86"/><feFlood flood-color="#f312d2"/><feComposite operator="in" in2="blur-86"/><feComposite in="SourceGraphic"/></filter><filter id="prefix__aH" x="48.222" y="307.284" width="50.92" height="86.461" filterUnits="userSpaceOnUse"><feOffset/><feGaussianBlur stdDeviation="3" result="blur-87"/><feFlood flood-color="#f312d2"/><feComposite operator="in" in2="blur-87"/><feComposite in="SourceGraphic"/></filter><filter id="prefix__aI" x="290.134" y="296.854" width="85.675" height="29.641" filterUnits="userSpaceOnUse"><feOffset/><feGaussianBlur stdDeviation="3" result="blur-88"/><feFlood flood-color="#f312d2"/><feComposite operator="in" in2="blur-88"/><feComposite in="SourceGraphic"/></filter><filter id="prefix__aJ" x="231.158" y="-8.993" width="130.175" height="50.542" filterUnits="userSpaceOnUse"><feOffset/><feGaussianBlur stdDeviation="3" result="blur-89"/><feFlood flood-color="#f312d2"/><feComposite operator="in" in2="blur-89"/><feComposite in="SourceGraphic"/></filter><filter id="prefix__aK" x="-8.695" y="26.011" width="28.374" height="79.378" filterUnits="userSpaceOnUse"><feOffset/><feGaussianBlur stdDeviation="3" result="blur-90"/><feFlood flood-color="#f312d2"/><feComposite operator="in" in2="blur-90"/><feComposite in="SourceGraphic"/></filter><filter id="prefix__aL" x="526.272" y="-8.999" width="88.687" height="62.636" filterUnits="userSpaceOnUse"><feOffset/><feGaussianBlur stdDeviation="3" result="blur-91"/><feFlood flood-color="#f312d2"/><feComposite operator="in" in2="blur-91"/><feComposite in="SourceGraphic"/></filter><filter id="prefix__aM" x="-8.992" y="214.994" width="52.579" height="101.06" filterUnits="userSpaceOnUse"><feOffset/><feGaussianBlur stdDeviation="3" result="blur-92"/><feFlood flood-color="#f312d2"/><feComposite operator="in" in2="blur-92"/><feComposite in="SourceGraphic"/></filter><filter id="prefix__aN" x="24.384" y="296.852" width="128.411" height="29.651" filterUnits="userSpaceOnUse"><feOffset/><feGaussianBlur stdDeviation="3" result="blur-93"/><feFlood flood-color="#f312d2"/><feComposite operator="in" in2="blur-93"/><feComposite in="SourceGraphic"/></filter><filter id="prefix__aO" x="-8.992" y="86.192" width="76.416" height="83.524" filterUnits="userSpaceOnUse"><feOffset/><feGaussianBlur stdDeviation="3" result="blur-94"/><feFlood flood-color="#f312d2"/><feComposite operator="in" in2="blur-94"/><feComposite in="SourceGraphic"/></filter><filter id="prefix__aP" x="568.747" y="2.117" width="51.522" height="87.199" filterUnits="userSpaceOnUse"><feOffset/><feGaussianBlur stdDeviation="3" result="blur-95"/><feFlood flood-color="#f312d2"/><feComposite operator="in" in2="blur-95"/><feComposite in="SourceGraphic"/></filter><filter id="prefix__aQ" x="426.563" y="-8.993" width="118.918" height="57.771" filterUnits="userSpaceOnUse"><feOffset/><feGaussianBlur stdDeviation="3" result="blur-96"/><feFlood flood-color="#f312d2"/><feComposite operator="in" in2="blur-96"/><feComposite in="SourceGraphic"/></filter><filter id="prefix__aR" x="497.724" y="264.361" width="87.694" height="59.697" filterUnits="userSpaceOnUse"><feOffset/><feGaussianBlur stdDeviation="3" result="blur-97"/><feFlood flood-color="#f312d2"/><feComposite operator="in" in2="blur-97"/><feComposite in="SourceGraphic"/></filter><filter id="prefix__aS" x="412.893" y="242.992" width="104.042" height="62.63" filterUnits="userSpaceOnUse"><feOffset/><feGaussianBlur stdDeviation="3" result="blur-98"/><feFlood flood-color="#f312d2"/><feComposite operator="in" in2="blur-98"/><feComposite in="SourceGraphic"/></filter></defs><g data-name="Group 685" clip-path="url(#prefix__clip-path)"><g filter="url(#prefix__a)"><path data-name="Path 22452" d="M548.743 89.161H67.879a12.665 12.665 0 010-25.329h480.864a12.665 12.665 0 110 25.329M67.879 65.034a11.458 11.458 0 100 22.916h480.864a11.458 11.458 0 100-22.916z" fill="#b40568"/></g><g filter="url(#prefix__b)"><path data-name="Path 22453" d="M548.743 171.182H67.879a12.665 12.665 0 110-25.329h480.864a12.665 12.665 0 110 25.329M67.879 147.055a11.458 11.458 0 100 22.916h480.864a11.458 11.458 0 100-22.916z" fill="#b40568"/></g><g filter="url(#prefix__c)"><path data-name="Path 22454" d="M548.743 253.2H67.879a12.665 12.665 0 110-25.329h480.864a12.665 12.665 0 110 25.329M67.879 229.076a11.458 11.458 0 100 22.916h480.864a11.458 11.458 0 100-22.916z" fill="#b40568"/></g><g filter="url(#prefix__d)"><path data-name="Path 22455" d="M535.883 39.782a.613.613 0 01-.42-.165L494.456 1.049a.6.6 0 01.412-1.039h41.015a.6.6 0 01.6.6v38.571a.594.594 0 01-.362.552.653.653 0 01-.239.049M496.391 1.21l38.882 36.58V1.21z" fill="#b40568"/></g><g filter="url(#prefix__e)"><path data-name="Path 22456" d="M552.792 65.752a.6.6 0 01-.5-.272L535.37 39.51a.609.609 0 01.025-.683.591.591 0 01.642-.231l49.051 12.985a.607.607 0 01.445.543.6.6 0 01-.379.6l-32.131 12.987a.715.715 0 01-.231.041M537.238 40.16l15.793 24.242 30-12.121z" fill="#b40568"/></g><g filter="url(#prefix__f)"><path data-name="Path 22457" d="M584.926 52.76a.538.538 0 01-.3-.082.58.58 0 01-.3-.428l-6.572-40.439a.6.6 0 01.338-.651.617.617 0 01.716.165l27.008 32.311a.6.6 0 01.124.535.605.605 0 01-.362.412l-20.43 8.136a.706.706 0 01-.222.041m-5.633-38.973l6.11 37.532 18.955-7.551z" fill="#b40568"/></g><g filter="url(#prefix__g)"><path data-name="Path 22458" d="M595.381 117.752l-.066-.008a.586.586 0 01-.527-.5l-10.457-64.987a.6.6 0 011.038-.5L611.108 79.3a.6.6 0 01.115.634l-15.282 37.439a.6.6 0 01-.56.379m-9.544-63.733l9.8 60.909 14.323-35.095z" fill="#b40568"/></g><g filter="url(#prefix__h)"><path data-name="Path 22459" d="M522.21 144.61a.611.611 0 01-.461-.214.6.6 0 01-.066-.683l32.246-56.907a.6.6 0 01.4-.288.617.617 0 01.478.1l40.932 30.047a.588.588 0 01.239.568.6.6 0 01-.387.478l-73.175 26.867a.568.568 0 01-.206.033m32.435-56.619l-31.1 54.881 70.576-25.9z" fill="#b40568"/></g><g filter="url(#prefix__i)"><path data-name="Path 22460" d="M610.67 160.718a.593.593 0 01-.568-.4l-15.283-42.962a.591.591 0 01.008-.428l15.283-37.441a.6.6 0 01.675-.371.608.608 0 01.486.593v80.408a.6.6 0 01-.5.593l-.1.008m-14.642-43.551l14.031 39.458V82.781z" fill="#b40568"/></g><g filter="url(#prefix__j)"><path data-name="Path 22461" d="M509.347 65.029H436.17a.592.592 0 01-.585-.453.609.609 0 01.3-.683l44.23-23.311a.6.6 0 01.659.058l28.952 23.319a.616.616 0 01.189.675.6.6 0 01-.568.4m-70.74-1.2h69.028l-27.306-22.001z" fill="#b40568"/></g><g filter="url(#prefix__k)"><path data-name="Path 22462" d="M480.391 41.716a.613.613 0 01-.486-.255.579.579 0 01-.082-.552L494.299.4a.6.6 0 01.428-.379.592.592 0 01.552.148l41.007 38.569a.6.6 0 01.156.651.627.627 0 01-.543.4l-55.491 1.927zM495.12 1.672l-13.866 38.8 53.152-1.853z" fill="#b40568"/></g><g filter="url(#prefix__l)"><path data-name="Path 22463" d="M417.676 65.03h-73.178a.6.6 0 01-.568-.4.6.6 0 01.189-.675l40.211-32.481a.594.594 0 01.8.033l32.97 32.492a.6.6 0 01.132.659.589.589 0 01-.552.371m-71.477-1.199h70l-31.538-31.08z" fill="#b40568"/></g><g filter="url(#prefix__m)"><path data-name="Path 22464" d="M384.7 32.553a.613.613 0 01-.42-.165L351.31 1.049a.583.583 0 01-.14-.659.6.6 0 01.56-.38h84.434a.6.6 0 01.316 1.113l-51.467 31.339a.624.624 0 01-.313.091M353.237 1.21l31.537 29.984L434.007 1.21z" fill="#b40568"/></g><g filter="url(#prefix__n)"><path data-name="Path 22465" d="M480.394 41.714l-.058-.008-95.686-9.165a.622.622 0 01-.535-.469.609.609 0 01.28-.651L435.85.09a.6.6 0 01.716.066L480.8 40.668a.591.591 0 01.14.683.6.6 0 01-.552.362m-93.829-10.2l92.092 8.827-42.557-38.99z" fill="#b40568"/></g><g filter="url(#prefix__o)"><path data-name="Path 22466" d="M235.134 24.944a.7.7 0 01-.288-.066L190.619 1.139a.587.587 0 01-.3-.675.592.592 0 01.588-.454h49.85a.614.614 0 01.478.222.588.588 0 01.107.519l-5.624 23.732a.609.609 0 01-.338.412.661.661 0 01-.247.049M193.304 1.21l41.418 22.236L240 1.21z" fill="#b40568"/></g><g filter="url(#prefix__p)"><path data-name="Path 22467" d="M285.167 65.032a.574.574 0 01-.379-.132l-50.031-40.093a.62.62 0 01-.181-.708.6.6 0 01.634-.362l61.913 7.6a.632.632 0 01.445.288.605.605 0 01.049.519l-11.89 32.493a.588.588 0 01-.4.371l-.156.025m-48-39.837l47.717 38.24 11.338-30.995z" fill="#b40568"/></g><g filter="url(#prefix__q)"><path data-name="Path 22468" d="M384.7 32.539h-87.65a.6.6 0 01-.3-1.12L351.434.08a.6.6 0 01.716.09l32.97 31.33a.585.585 0 01.14.659.6.6 0 01-.56.379m-85.381-1.2h83.874L351.65 1.348z" fill="#b40568"/></g><g filter="url(#prefix__r)"><path data-name="Path 22469" d="M344.5 65.03h-59.34a.594.594 0 01-.494-.255.62.62 0 01-.074-.552l11.89-32.493a.605.605 0 01.387-.362.581.581 0 01.519.074l47.446 32.488a.6.6 0 01-.338 1.1m-58.471-1.2h56.52l-45.19-30.958z" fill="#b40568"/></g><g filter="url(#prefix__s)"><path data-name="Path 22470" d="M103.746 65.037h-.074a.6.6 0 01-.486-.379L77.569.834a.591.591 0 01.058-.56.606.606 0 01.5-.263H149.1a.6.6 0 01.535.321.591.591 0 01-.041.626L104.232 64.79a.6.6 0 01-.486.247M79.019 1.21l24.875 61.974L147.931 1.21z" fill="#b40568"/></g><g filter="url(#prefix__t)"><path data-name="Path 22471" d="M190.908 48.787a.614.614 0 01-.453-.206L148.641 1a.6.6 0 01.619-.976l86.04 23.731a.589.589 0 01.436.511.613.613 0 01-.313.6l-44.227 23.847a.6.6 0 01-.288.074M150.881 1.72l40.167 45.7 42.48-22.9z" fill="#b40568"/></g><g filter="url(#prefix__u)"><path data-name="Path 22472" d="M201.684 65.027h-97.946a.6.6 0 01-.107-1.194l87.168-16.246a.615.615 0 01.618.263l10.77 16.25a.594.594 0 01.025.618.581.581 0 01-.527.313m-91.417-1.2h90.289l-9.923-14.984z" fill="#b40568"/></g><g filter="url(#prefix__v)"><path data-name="Path 22473" d="M10.071 36.215a.6.6 0 01-.4-1.046L40.842 6.695a.6.6 0 01.3-.156l36.87-6.53a.6.6 0 01.675.4.587.587 0 01-.3.725L10.351 36.149a.561.561 0 01-.28.066M41.526 7.7l-27.7 25.312L74.29 1.894z" fill="#b40568"/></g><g filter="url(#prefix__w)"><path data-name="Path 22474" d="M.913 65.029a.585.585 0 01-.469-.222.593.593 0 01-.025-.725l40.34-57.294a.656.656 0 01.552-.255.615.615 0 01.486.346l15.216 32.73L148.858.052a.6.6 0 01.609 1.021L68.253 64.905a.6.6 0 01-.511.107.616.616 0 01-.412-.329l-10.919-23.5L1.152 64.979a.652.652 0 01-.239.049M57.515 40.7l10.589 22.781 76.982-60.5zM41.146 8.336L2.634 63.028l53.267-22.941z" fill="#b40568"/></g><g filter="url(#prefix__x)"><path data-name="Path 22475" d="M.61 225.201a.531.531 0 01-.165-.025.6.6 0 01-.435-.584V160.11a.594.594 0 01.4-.56.6.6 0 01.667.173l23.033 27.346a.608.608 0 01.049.708L1.11 224.913a.581.581 0 01-.5.288m.6-63.437v60.72l21.692-34.971z" fill="#b40568"/></g><g filter="url(#prefix__y)"><path data-name="Path 22476" d="M23.644 117.751a.608.608 0 01-.412-.165L.49 96.226a.593.593 0 01-.181-.556.617.617 0 01.4-.445L55.61 75.921a.6.6 0 01.692.222.606.606 0 01-.016.725L24.122 117.52a.636.636 0 01-.428.231h-.049M2.038 96.029l21.541 20.231 30.466-38.511z" fill="#b40568"/></g><g filter="url(#prefix__z)"><path data-name="Path 22477" d="M23.652 117.745h-.074a.608.608 0 01-.478-.362L.357 64.67a.606.606 0 01.683-.832l54.907 12.061a.608.608 0 01.346.963l-32.164 40.661a.627.627 0 01-.478.222M1.93 65.27l21.878 50.7 30.936-39.1z" fill="#b40568"/></g><g filter="url(#prefix__A)"><path data-name="Path 22478" d="M201.683 116.158a.6.6 0 01-.428-.173l-28.466-28.45a.611.611 0 01-.132-.659.6.6 0 01.56-.371h76.224a.6.6 0 01.313 1.12l-47.766 28.45a.606.606 0 01-.3.082m-27.013-28.449l27.098 27.092 45.477-27.092z" fill="#b40568"/></g><g filter="url(#prefix__B)"><path data-name="Path 22479" d="M92.004 147.051a.591.591 0 01-.239-.049l-68.353-29.298a.6.6 0 01.189-1.153l54.47-4.751a.6.6 0 01.609.371l13.884 34.049a.611.611 0 01-.14.659.585.585 0 01-.42.173M26.097 117.54l64.8 27.774-13.163-32.27z" fill="#b40568"/></g><g filter="url(#prefix__C)"><path data-name="Path 22480" d="M23.65 188.06a.57.57 0 01-.231-.041.6.6 0 01-.371-.56v-70.313a.6.6 0 01.371-.56.614.614 0 01.659.14l34.181 34.724a.621.621 0 01.008.84l-34.18 35.588a.611.611 0 01-.436.181m.599-69.439v67.34l32.732-34.082z" fill="#b40568"/></g><g filter="url(#prefix__D)"><path data-name="Path 22481" d="M610.663 225.202a.6.6 0 01-.346-.115l-45.041-32.247a.6.6 0 010-.972l45.041-32.245a.61.61 0 01.626-.049.621.621 0 01.329.543v64.475a.621.621 0 01-.329.543.665.665 0 01-.28.066m-44-32.846l43.394 31.068v-62.135z" fill="#b40568"/></g><g filter="url(#prefix__E)"><path data-name="Path 22482" d="M489.234 229.067a.6.6 0 01-.461-.98l46.639-56.923a.594.594 0 01.807-.115l29.75 20.808a.6.6 0 01.263.543.627.627 0 01-.346.494l-76.388 36.115a.61.61 0 01-.263.058m46.755-56.709L491.4 226.78l73.03-34.526z" fill="#b40568"/></g><g filter="url(#prefix__F)"><path data-name="Path 22483" d="M458.686 317.494H366.21a.594.594 0 01-.593-.494.587.587 0 01.379-.667l56.294-20.882a.613.613 0 01.511.049l36.19 20.874a.588.588 0 01.28.675.608.608 0 01-.585.445m-89.111-1.2h86.863l-33.991-19.608z" fill="#b40568"/></g><g filter="url(#prefix__G)"><path data-name="Path 22484" d="M387.916 207.453a.6.6 0 01-.362-.124l-47.042-35.299a.594.594 0 01-.206-.667.6.6 0 01.568-.412h80.012a.605.605 0 01.445 1.013l-32.97 35.292a.588.588 0 01-.445.2m-45.231-35.3l45.165 33.881 31.652-33.884z" fill="#b40568"/></g><g filter="url(#prefix__H)"><path data-name="Path 22485" d="M489.248 229.067h-76.8a.575.575 0 01-.4-.148l-24.526-21.623a.606.606 0 01.527-1.046l101.322 21.631a.6.6 0 01-.124 1.186m-76.57-1.2h70.856l-93.483-19.954z" fill="#b40568"/></g><g filter="url(#prefix__I)"><path data-name="Path 22486" d="M412.448 229.066a.586.586 0 01-.329-.091.6.6 0 01-.264-.6l8.44-56.923a.6.6 0 01.832-.461l48.253 20.808a.587.587 0 01.362.5.615.615 0 01-.28.56l-56.693 36.121a.559.559 0 01-.321.091m8.926-56.66l-8.135 54.84 54.618-34.8z" fill="#b40568"/></g><g filter="url(#prefix__J)"><path data-name="Path 22487" d="M545.522 229.066a.575.575 0 01-.255-.058l-76.389-36.115a.6.6 0 01.074-1.12l66.747-20.808a.61.61 0 01.774.478l9.651 56.923a.635.635 0 01-.231.585.657.657 0 01-.371.115m-74.734-36.6l73.952 34.961-9.346-55.1z" fill="#b40568"/></g><g filter="url(#prefix__K)"><path data-name="Path 22488" d="M215.836 218.258h-.074l-63.124-7.255a.6.6 0 01-.42-.955l28.935-39.829a.6.6 0 01.486-.247.593.593 0 01.486.247l34.2 47.083a.6.6 0 01.033.659.588.588 0 01-.519.3m-62.04-8.336l60.744 6.983-32.9-45.3z" fill="#b40568"/></g><g filter="url(#prefix__L)"><path data-name="Path 22489" d="M276.953 229.065H165.181a.6.6 0 01-.124-1.186l50.657-10.82a.723.723 0 01.231 0l61.115 10.812a.612.612 0 01.494.65.594.594 0 01-.6.543m-106.057-1.2h99.193l-54.235-9.594z" fill="#b40568"/></g><g filter="url(#prefix__M)"><path data-name="Path 22490" d="M276.947 229.068a.614.614 0 01-.56-.362.6.6 0 01.156-.683l63.932-56.933a.6.6 0 01.675-.082.6.6 0 01.321.609l-6.027 51.514a.613.613 0 01-.543.535l-57.9 5.4h-.049m63.136-56.016l-61.37 54.651 55.581-5.2z" fill="#b40568"/></g><g filter="url(#prefix__N)"><path data-name="Path 22491" d="M267.704 192.954a.621.621 0 01-.338-.1L234.8 171.075a.594.594 0 01-.239-.675.6.6 0 01.576-.428h65.134a.6.6 0 01.576.428.618.618 0 01-.239.675l-32.566 21.78a.641.641 0 01-.338.1m-30.582-21.781l30.582 20.456 30.582-20.456z" fill="#b40568"/></g><g filter="url(#prefix__O)"><path data-name="Path 22492" d="M334.844 223.665a.519.519 0 01-.247-.058l-67.151-30.706a.6.6 0 01-.346-.6.606.606 0 01.436-.535l73.17-20.8a.6.6 0 01.56.115.59.59 0 01.206.527l-6.027 51.522a.612.612 0 01-.3.453.557.557 0 01-.3.082m-65.406-31.185l64.9 29.684 5.83-49.8z" fill="#b40568"/></g><g filter="url(#prefix__P)"><path data-name="Path 22493" d="M412.448 229.064H276.954a.606.606 0 01-.6-.543.616.616 0 01.486-.65l110.972-21.624a.607.607 0 01.7.445.614.614 0 01-.412.725l-49.957 15.266 74.347 5.179a.6.6 0 01-.041 1.2m-129.245-1.2h111.911l-60.308-4.2a.606.606 0 01-.552-.535.594.594 0 01.42-.642l42-12.837z" fill="#b40568"/></g><g filter="url(#prefix__Q)"><path data-name="Path 22494" d="M206.458 147.043h-67.01a.6.6 0 01-.272-1.136l62.234-30.896a.6.6 0 01.543.008.588.588 0 01.321.436l4.776 30.895a.611.611 0 01-.14.486.6.6 0 01-.453.206m-64.441-1.2h63.734l-4.537-29.38z" fill="#b40568"/></g><g filter="url(#prefix__R)"><path data-name="Path 22495" d="M139.451 147.058a.671.671 0 01-.3-.082l-61.317-34.049a.6.6 0 01.354-1.128l70.979 7.51a.622.622 0 01.445.28.6.6 0 01.058.527l-9.651 26.539a.594.594 0 01-.354.362.619.619 0 01-.214.041M81.01 113.314l58.12 32.27 9.14-25.156z" fill="#b40568"/></g><g filter="url(#prefix__S)"><path data-name="Path 22496" d="M149.095 120.513a.59.59 0 01-.527-.313.6.6 0 01.041-.651l12.178-16.566-47.371-15.308a.6.6 0 01.189-1.169h59.608a.606.606 0 01.543.329.6.6 0 01-.058.626l-10.943 14.888 39.1 12.631a.608.608 0 01.412.642.6.6 0 01-.543.535l-52.58 4.356h-.049m12.9-17.144L150.363 119.2l48.261-4zm-44.561-15.661l44.111 14.254 10.482-14.254z" fill="#b40568"/></g><g filter="url(#prefix__T)"><path data-name="Path 22497" d="M78.121 113l-.14-.016a.6.6 0 01-.4-.321L64.93 87.379a.63.63 0 01.025-.593.6.6 0 01.511-.28h48.145a.6.6 0 01.576.412.619.619 0 01-.222.675l-35.49 25.3a.626.626 0 01-.354.115m-11.676-25.3L78.352 111.5l33.373-23.792z" fill="#b40568"/></g><g filter="url(#prefix__U)"><path data-name="Path 22498" d="M469.139 147.048h-75.187a.589.589 0 01-.552-.371.581.581 0 01.124-.651l29.083-29.305a.6.6 0 01.749-.082l46.1 29.3a.606.606 0 01.255.683.593.593 0 01-.576.428m-73.738-1.2h71.663l-43.934-27.935z" fill="#b40568"/></g><g filter="url(#prefix__V)"><path data-name="Path 22499" d="M340.869 113.011a.579.579 0 01-.428-.181l-22.924-23.85a.609.609 0 01-.115-.659.594.594 0 01.552-.362h53.612a.595.595 0 01.362 1.07l-30.688 23.858a.608.608 0 01-.371.124M319.37 89.164l21.557 22.439 28.877-22.439z" fill="#b40568"/></g><g filter="url(#prefix__W)"><path data-name="Path 22500" d="M393.947 147.05a.586.586 0 01-.329-.091l-34.017-21.828-62.481 7.27a.626.626 0 01-.659-.445.607.607 0 01.338-.708l43.831-19.4a.606.606 0 01.568.041l18.692 12 63.066-7.337a.6.6 0 01.609.338.587.587 0 01-.107.683l-29.083 29.304a.6.6 0 01-.428.173m-32.46-22.13l32.369 20.759 27.527-27.733zm-20.668-11.836l-39.887 17.654 57.063-6.637z" fill="#b40568"/></g><g filter="url(#prefix__X)"><path data-name="Path 22501" d="M314.833 147.047h-68.7a.6.6 0 01-.6-.519.6.6 0 01.428-.659l50.929-14.656a.629.629 0 01.552.115l17.778 14.657a.588.588 0 01.181.667.6.6 0 01-.568.4m-64.423-1.207h62.743l-16.23-13.385z" fill="#b40568"/></g><g filter="url(#prefix__Y)"><path data-name="Path 22502" d="M472.75 113.011a.594.594 0 01-.329-.1l-36.585-23.846a.6.6 0 01-.255-.675.61.61 0 01.585-.428h44.225a.621.621 0 01.486.239.609.609 0 01.082.543l-7.633 23.847a.61.61 0 01-.379.387.553.553 0 01-.2.033m-34.556-23.847l34.221 22.307 7.148-22.307z" fill="#b40568"/></g><g filter="url(#prefix__Z)"><path data-name="Path 22503" d="M469.143 147.051a.66.66 0 01-.329-.091l-46.104-29.305a.612.612 0 01-.263-.651.626.626 0 01.535-.461L472.7 111.8a.615.615 0 01.486.173.643.643 0 01.173.494l-3.623 34.053a.588.588 0 01-.338.478.575.575 0 01-.255.058m-44.3-29.47l43.8 27.84 3.442-32.352z" fill="#b40568"/></g><g filter="url(#prefix__aa)"><path data-name="Path 22504" d="M469.136 147.058a.611.611 0 01-.576-.42.6.6 0 01.247-.692l69.695-45.115a.607.607 0 01.708.033.628.628 0 01.181.692l-16.618 42.678a.608.608 0 01-.535.379l-53.078 2.445h-.025m68.451-44.2l-66.256 42.891 50.451-2.322z" fill="#b40568"/></g><g filter="url(#prefix__ab)"><path data-name="Path 22505" d="M554.916 147.058a.642.642 0 01-.181-.025.592.592 0 01-.387-.379l-16.088-45.115a.6.6 0 01.733-.782l56.561 15.818a.6.6 0 01.189 1.062l-40.473 29.306a.626.626 0 01-.354.115m-15.127-44.827l15.423 43.263L594.02 117.4z" fill="#b40568"/></g><g filter="url(#prefix__ac)"><path data-name="Path 22506" d="M610.656 225.197a.61.61 0 01-.469-.222l-50.262-63.059a.6.6 0 01.453-.98l50.262-1.425a.615.615 0 01.445.173.584.584 0 01.181.428v64.483a.6.6 0 01-.4.568.6.6 0 01-.206.033m-49.039-63.09l48.434 60.769v-62.144z" fill="#b40568"/></g><g filter="url(#prefix__ad)"><path data-name="Path 22507" d="M276.952 229.066l-.1-.008-61.114-10.812a.594.594 0 01-.494-.511.615.615 0 01.329-.626l51.868-25.3a.6.6 0 01.519 0 .588.588 0 01.329.4l9.247 36.115a.583.583 0 01-.14.56.6.6 0 01-.445.189m-59.179-11.692l58.365 10.326-8.827-34.493z" fill="#b40568"/></g><g filter="url(#prefix__ae)"><path data-name="Path 22508" d="M165.181 229.066h-61.444a.6.6 0 01-.214-1.161l48.977-18.066a.587.587 0 01.7.222l12.475 18.066a.6.6 0 01.033.618.589.589 0 01-.527.321m-58.071-1.202h56.918l-11.553-16.732z" fill="#b40568"/></g><g filter="url(#prefix__af)"><path data-name="Path 22509" d="M103.743 200.612a.613.613 0 01-.42-.165L72.024 171.01a.609.609 0 01-.148-.667.631.631 0 01.576-.371l48.78.972a.621.621 0 01.519.313.6.6 0 01-.016.6l-17.482 28.466a.606.606 0 01-.436.28l-.074.008m-29.75-29.4l29.617 27.853 16.544-26.934z" fill="#b40568"/></g><g filter="url(#prefix__ag)"><path data-name="Path 22510" d="M103.736 229.072a.574.574 0 01-.346-.107.594.594 0 01-.255-.494v-28.458a.6.6 0 01.222-.469.588.588 0 01.5-.123l48.972 10.391a.606.606 0 01.082 1.161l-48.969 18.066a.6.6 0 01-.206.033m.6-28.318v26.852l46.2-17.045z" fill="#b40568"/></g><g filter="url(#prefix__ah)"><path data-name="Path 22511" d="M61.911 230.672a.6.6 0 01-.239-.058L25.548 214.79a.608.608 0 01-.354-.626.594.594 0 01.494-.519l43.427-7.4a.614.614 0 01.552.206.587.587 0 01.124.576l-7.3 23.221a.623.623 0 01-.321.371.679.679 0 01-.255.058M27.878 214.49l33.662 14.75 6.8-21.64z" fill="#b40568"/></g><g filter="url(#prefix__ai)"><path data-name="Path 22512" d="M28.359 268.874a.607.607 0 01-.511-.28L.091 224.92a.653.653 0 01-.066-.511.615.615 0 01.346-.371l25.2-10.359a.6.6 0 01.552.049.611.611 0 01.28.478l2.557 54.042a.594.594 0 01-.42.6.643.643 0 01-.181.025m-26.86-44l26.152 41.16-2.421-50.912z" fill="#b40568"/></g><g filter="url(#prefix__aj)"><path data-name="Path 22513" d="M70.829 317.491a.534.534 0 01-.165-.016l-36.84-10.441a.6.6 0 01-.436-.494l-5.633-38.18a.62.62 0 01.346-.634.594.594 0 01.708.156l42.471 48.613a.6.6 0 01-.453 1M34.524 305.98l34.51 9.774-39.78-45.535z" fill="#b40568"/></g><g filter="url(#prefix__ak)"><path data-name="Path 22514" d="M69.219 207.452a.62.62 0 01-.239-.049l-45.56-19.384a.6.6 0 01-.371-.568.608.608 0 01.387-.552l44.226-16.888a.613.613 0 01.823.543l1.335 36.276a.618.618 0 01-.255.519.657.657 0 01-.346.107m-43.955-19.964l43.321 18.428-1.277-34.485z" fill="#b40568"/></g><g filter="url(#prefix__al)"><path data-name="Path 22515" d="M206.455 147.055a.611.611 0 01-.576-.412.6.6 0 01.3-.725l67.624-35.118-24.777-23.254a.6.6 0 01-.14-.667.562.562 0 01.568-.371l68.517 1.441a.606.606 0 01.576.469.587.587 0 01-.313.667l-42.365 22 21.6 20.273a.593.593 0 01.156.618.61.61 0 01-.478.42l-90.597 14.65-.1.008m68.284-35.374l-64.672 33.58 85.688-13.86zm-23.731-23.937l23.937 22.472 40.644-21.1z" fill="#b40568"/></g><g filter="url(#prefix__am)"><path data-name="Path 22516" d="M289.822 277.322a.633.633 0 01-.3-.074l-43.688-24.127a.61.61 0 01-.288-.683.594.594 0 01.585-.445h87.379a.608.608 0 01.585.445.615.615 0 01-.3.683l-43.685 24.126a.6.6 0 01-.288.074m-41.353-24.126l41.353 22.834 41.352-22.834z" fill="#b40568"/></g><g filter="url(#prefix__an)"><path data-name="Path 22517" d="M333.508 307.058a.63.63 0 01-.338-.107l-43.691-29.734a.6.6 0 01.453-1.1l76.4 14.871a.6.6 0 01.478.519.591.591 0 01-.346.618l-32.709 14.876a.638.638 0 01-.247.058m-40.924-29.191l40.982 27.9 30.681-13.949z" fill="#b40568"/></g><g filter="url(#prefix__ao)"><path data-name="Path 22518" d="M422.502 296.625l-.049-.008-56.29-4.427a.6.6 0 01-.3-1.087l54.679-39.675a.6.6 0 01.618-.058.607.607 0 01.338.519L423.104 296a.579.579 0 01-.181.453.621.621 0 01-.42.173m-54.61-5.509l53.984 4.249-1.548-42.3z" fill="#b40568"/></g><g filter="url(#prefix__ap)"><path data-name="Path 22519" d="M507.332 283.752h-.033a.6.6 0 01-.428-.222l-25.331-30.557a.6.6 0 01.461-.98h56.825a.6.6 0 01.56.371.6.6 0 01-.14.659l-31.494 30.557a.572.572 0 01-.42.173m-24.044-30.558l24.093 29.067 29.964-29.067z" fill="#b40568"/></g><g filter="url(#prefix__aq)"><path data-name="Path 22520" d="M522.207 317.497h-61.114a.6.6 0 01-.568-.412.61.61 0 01.214-.675l46.244-33.744a.614.614 0 01.511-.091.6.6 0 01.4.338l14.871 33.744a.594.594 0 01-.552.84m-59.262-1.2h58.34l-14.2-32.212z" fill="#b40568"/></g><g filter="url(#prefix__ar)"><path data-name="Path 22521" d="M584.932 301.604l-.1-.008a.6.6 0 01-.478-.4l-9.114-27.037a.665.665 0 01.082-.543.608.608 0 01.494-.247h29.344a.576.576 0 01.535.329.608.608 0 01-.049.634L585.41 301.37a.571.571 0 01-.478.239m-8.272-27.039l8.481 25.156 18.819-25.156z" fill="#b40568"/></g><g filter="url(#prefix__as)"><path data-name="Path 22522" d="M605.164 274.568l-.091-.008a.6.6 0 01-.511-.659l5.509-49.373a.613.613 0 01.634-.535.6.6 0 01.568.6v22.069l-5.517 27.42a.606.606 0 01-.593.486m4.908-39.17l-2.791 25.007 2.8-13.858z" fill="#b40568"/></g><g filter="url(#prefix__at)"><path data-name="Path 22523" d="M575.82 274.562a.455.455 0 01-.148-.016.606.606 0 01-.4-.346l-15.423-36.461a.605.605 0 01.091-.609.623.623 0 01.576-.222l50.262 9.165a.6.6 0 01.478.445.609.609 0 01-.214.626l-34.847 27.3a.614.614 0 01-.379.124m-14.419-36.269l14.673 34.7 33.176-25.979z" fill="#b40568"/></g><g filter="url(#prefix__au)"><path data-name="Path 22524" d="M522.206 317.498a.608.608 0 01-.593-.511.6.6 0 01.453-.675l62.721-15.892a.6.6 0 01.708.362.615.615 0 01-.288.758l-26.136 13.455a.466.466 0 01-.231.066l-36.592 2.437h-.041m57.753-14.616l-51.183 12.969 29.857-1.984z" fill="#b40568"/></g><g filter="url(#prefix__av)"><path data-name="Path 22525" d="M240.757 333.89a.6.6 0 01-.453-1l21.442-24.34a.6.6 0 01.576-.189l37.532 7.946a.6.6 0 01.041 1.169l-58.973 16.385a.571.571 0 01-.165.025m21.664-24.283l-19.869 22.553 54.638-15.192z" fill="#b40568"/></g><g filter="url(#prefix__aw)"><path data-name="Path 22526" d="M175.363 274.572a.608.608 0 01-.412-.165l-22.66-21.368a.606.606 0 01.4-1.046l43.567-.683a.569.569 0 01.56.362.606.606 0 01-.115.659L175.8 274.383a.606.606 0 01-.436.189m-21.163-21.393l21.138 19.936 19.507-20.57z" fill="#b40568"/></g><g filter="url(#prefix__ax)"><path data-name="Path 22527" d="M196.274 326.108l-.066-.008a.6.6 0 01-.494-.371l-20.907-51.538a.615.615 0 01.181-.7.593.593 0 01.716-.025l38.059 25.765a.607.607 0 01.165.832l-17.152 25.773a.625.625 0 01-.5.272m-19.608-50.534l19.729 48.64 16.2-24.316z" fill="#b40568"/></g><g filter="url(#prefix__ay)"><path data-name="Path 22528" d="M262.208 309.554l-.107-.008-48.788-9.215a.6.6 0 01-.486-.56.6.6 0 01.428-.609l76.389-23.015a.6.6 0 01.634.972l-27.609 32.229a.605.605 0 01-.461.206m-46.244-9.947l46.016 8.683 26.045-30.393z" fill="#b40568"/></g><g filter="url(#prefix__az)"><path data-name="Path 22529" d="M157.645 356.993a.6.6 0 01-.535-.329.594.594 0 01.156-.741l38.627-30.895a.642.642 0 01.486-.124l44.49 7.781a.613.613 0 01.5.568.6.6 0 01-.445.609l-83.115 23.106a.57.57 0 01-.165.025m38.792-30.853l-36.107 28.877 77.707-21.6z" fill="#b40568"/></g><g filter="url(#prefix__aA)"><path data-name="Path 22530" d="M104.62 278.277a.588.588 0 01-.445-.2l-23.599-25.762a.591.591 0 01-.107-.651.6.6 0 01.552-.354h47.206a.608.608 0 01.552.354.591.591 0 01-.107.651l-23.608 25.765a.576.576 0 01-.445.2m-22.232-25.768l22.233 24.278 22.24-24.278z" fill="#b40568"/></g><g filter="url(#prefix__aB)"><path data-name="Path 22531" d="M86.381 317.493a.6.6 0 01-.486-.247.582.582 0 01-.058-.609l18.239-39.217a.6.6 0 01.412-.329.575.575 0 01.511.115l38.585 31.262a.618.618 0 01.2.634.6.6 0 01-.494.436l-56.83 7.947-.082.008m18.464-38.865l-17.449 37.507 54.354-7.6z" fill="#b40568"/></g><g filter="url(#prefix__aC)"><path data-name="Path 22532" d="M196.26 326.108a.43.43 0 01-.173-.033l-53.078-16.55a.605.605 0 01.107-1.178l70.222-9.214a.6.6 0 01.593.28.614.614 0 01-.008.659l-17.161 25.765a.583.583 0 01-.5.272m-50.272-16.922l50.023 15.6 16.164-24.287z" fill="#b40568"/></g><g filter="url(#prefix__aD)"><path data-name="Path 22533" d="M89.53 375.924a.62.62 0 01-.535-.321.6.6 0 01.148-.741l38.696-32.138a.58.58 0 01.626-.082l29.421 13.2a.594.594 0 01.362.593.607.607 0 01-.445.535l-68.105 18.938-.165.016m38.783-32.031l-36.231 30.1 63.783-17.74z" fill="#b40568"/></g><g filter="url(#prefix__aE)"><path data-name="Path 22534" d="M55.818 354.173a.594.594 0 01-.494-.255.606.606 0 01.033-.733l30.553-36.676a.545.545 0 01.486-.214.578.578 0 01.461.255l15.015 20.94a.6.6 0 01-.288.914L56.015 354.14a.553.553 0 01-.2.033m30.527-36.293l-28.68 34.415 42.76-14.764z" fill="#b40568"/></g><g filter="url(#prefix__aF)"><path data-name="Path 22535" d="M128.228 343.8l-.124-.008-26.835-5.364a.608.608 0 01-.478-.469.59.59 0 01.255-.618l41.814-28.886a.605.605 0 01.725.025.6.6 0 01.165.708l-14.971 34.246a.611.611 0 01-.552.362m-25.328-6.274l24.966 4.99 13.933-31.858z" fill="#b40568"/></g><g filter="url(#prefix__aG)"><path data-name="Path 22536" d="M22.048 394.69a.606.606 0 01-.511-.28.594.594 0 01.049-.708l33.77-40.533a.589.589 0 01.651-.181.6.6 0 01.412.527l2.009 30.582a.6.6 0 01-.436.618l-35.779 9.947a.571.571 0 01-.165.025m33.266-39.583l-31.561 37.878 33.439-9.3z" fill="#b40568"/></g><g filter="url(#prefix__aH)"><path data-name="Path 22537" d="M57.827 384.742a.609.609 0 01-.56-.84l28.556-67.249a.594.594 0 01.659-.362.614.614 0 01.494.568l3.162 58.43a.609.609 0 01-.445.618l-31.71 8.811-.156.025m28.087-65.225l-27.044 63.7 30.033-8.348z" fill="#b40568"/></g><g filter="url(#prefix__aI)"><path data-name="Path 22538" d="M366.21 317.495h-66.471a.6.6 0 01-.181-1.177l33.768-10.433a.547.547 0 01.362 0l32.706 10.433a.618.618 0 01.412.675.6.6 0 01-.6.5m-62.473-1.2h58.6l-28.823-9.206z" fill="#b40568"/></g><g filter="url(#prefix__aJ)"><path data-name="Path 22539" d="M297.048 32.553a.557.557 0 01-.3-.082L240.462 1.139a.61.61 0 01-.288-.683.594.594 0 01.585-.446h110.973a.591.591 0 01.576.445.588.588 0 01-.28.675l-54.684 31.34a.643.643 0 01-.3.082M243.081 1.21l53.959 30.042L349.459 1.21z" fill="#b40568"/></g><g filter="url(#prefix__aK)"><path data-name="Path 22540" d="M.908 96.39H.859a.6.6 0 01-.552-.6V64.433a.748.748 0 01.025-.189l9.173-28.812a.594.594 0 01.708-.4.6.6 0 01.461.675L1.501 95.88a.6.6 0 01-.593.511m.6-31.867v23.3l6.818-44.72z" fill="#b40568"/></g><g filter="url(#prefix__aL)"><path data-name="Path 22541" d="M605.361 44.636a.568.568 0 01-.321-.1L535.559 1.118a.592.592 0 01-.231-.749.585.585 0 01.7-.346L578.5 11.131a.659.659 0 01.313.2l27.009 32.309a.61.61 0 01-.461 1M539.553 2.189l62.917 39.326-24.455-29.264z" fill="#b40568"/></g><g filter="url(#prefix__aM)"><path data-name="Path 22542" d="M33.986 307.053a.6.6 0 01-.42-.173L.192 274.39a.555.555 0 01-.182-.43v-49.37a.585.585 0 01.486-.585.6.6 0 01.667.362l33.382 81.857a.611.611 0 01-.222.733.621.621 0 01-.338.1M1.21 273.705l31.125 30.3L1.21 227.667z" fill="#b40568"/></g><g filter="url(#prefix__aN)"><path data-name="Path 22543" d="M70.83 317.51a.531.531 0 01-.165-.025L33.83 307.04a.6.6 0 01-.436-.667.62.62 0 01.609-.519l109.207 2.495a.6.6 0 01.049 1.2l-72.362 7.948-.067.013m-32.121-10.339l32.171 9.115 63.19-6.941z" fill="#b40568"/></g><g filter="url(#prefix__aO)"><path data-name="Path 22544" d="M.61 160.714a.61.61 0 01-.4-.14.605.605 0 01-.2-.461V95.795a.605.605 0 01.362-.56.625.625 0 01.659.124l57.213 56.083a.628.628 0 01.156.626.612.612 0 01-.486.4l-57.22 8.246H.61m.6-63.484v62.191l55.318-7.971z" fill="#b40568"/></g><g filter="url(#prefix__aP)"><path data-name="Path 22545" d="M610.665 80.319a.6.6 0 01-.543-.346l-32.32-67.99a.6.6 0 011-.651l27.013 32.312a.609.609 0 01.14.3l5.3 35.679a.6.6 0 01-.42.667.626.626 0 01-.173.025m-29.731-64.561l28.54 60.044-4.685-31.5z" fill="#b40568"/></g><g filter="url(#prefix__aQ)"><path data-name="Path 22546" d="M535.88 39.782a.474.474 0 01-.214-.041L435.949 1.172a.6.6 0 01-.371-.675.6.6 0 01.592-.487h58.7a.608.608 0 01.412.165l41.007 38.569a.6.6 0 01-.412 1.038M439.399 1.21l93.821 36.292L494.635 1.21z" fill="#b40568"/></g><g filter="url(#prefix__aR)"><path data-name="Path 22547" d="M558.797 315.055a.614.614 0 01-.313-.082l-51.464-31.307a.615.615 0 01-.28-.642.635.635 0 01.511-.478l68.484-9.186a.593.593 0 01.56.231.607.607 0 01.082.6l-17.02 40.5a.65.65 0 01-.371.338.746.746 0 01-.189.025m-49.693-31.536l49.414 30.055 16.337-38.874z" fill="#b40568"/></g><g filter="url(#prefix__aS)"><path data-name="Path 22548" d="M422.503 296.623a.6.6 0 01-.56-.379.581.581 0 01.206-.708l59.5-43.427a.6.6 0 01.823.107l25.329 30.549a.615.615 0 01.1.6.609.609 0 01-.469.387l-84.839 12.862-.091.008m59.4-43.205l-57.053 41.633 81.338-12.335z" fill="#b40568"/></g></g></svg>