<svg xmlns="http://www.w3.org/2000/svg" width="37.755" height="21.405" viewBox="0 0 37.755 21.405">
  <g id="Group_697" data-name="Group 697" transform="translate(0)">
    <path id="Path_140" data-name="Path 140" d="M-4172.145-2791.406a10.709,10.709,0,0,1,10.7,10.714,10.535,10.535,0,0,1-3.174,7.576,10.545,10.545,0,0,1-7.533,3.115,10.54,10.54,0,0,1-7.559-3.148,10.523,10.523,0,0,1-3.14-7.551A10.708,10.708,0,0,1-4172.145-2791.406Z" transform="translate(4182.85 2791.406)" fill="#fff"/>
    <path id="Path_141" data-name="Path 141" d="M-1880.163-2727.81c-.016.412-.021.825-.05,1.237-.041.57-.1,1.137-.2,1.7a15.3,15.3,0,0,1-.641,2.551,10.4,10.4,0,0,1-1.217,2.468,5.85,5.85,0,0,1-1.436,1.505,3.53,3.53,0,0,1-1.427.619,3.03,3.03,0,0,1-1.752-.21,4.183,4.183,0,0,1-1.2-.79,7.1,7.1,0,0,1-1.375-1.788,12.584,12.584,0,0,1-1.25-3.354,16.747,16.747,0,0,1-.3-1.7c-.049-.387-.081-.776-.107-1.165-.034-.513-.042-1.026-.031-1.539q.011-.479.047-.957c.029-.39.068-.778.122-1.164a16.751,16.751,0,0,1,.356-1.833,13.527,13.527,0,0,1,.591-1.8,9.575,9.575,0,0,1,1.176-2.119,5.713,5.713,0,0,1,1.166-1.18,3.555,3.555,0,0,1,1.593-.688,2.945,2.945,0,0,1,1.237.078,3.807,3.807,0,0,1,1.332.69,6.3,6.3,0,0,1,1.427,1.632,10.8,10.8,0,0,1,1.036,2.182,15.384,15.384,0,0,1,.664,2.654q.11.673.164,1.354c.033.409.057.817.059,1.227C-1880.174-2728.068-1880.158-2727.939-1880.163-2727.81Z" transform="translate(1913.344 2738.565)" fill="#fff"/>
    <path id="Path_142" data-name="Path 142" d="M-692.791-2622.091c0,.335.007.672,0,1.007q-.019.7-.059,1.4c-.023.405-.056.811-.094,1.215a22.712,22.712,0,0,1-.484,3.125,7.511,7.511,0,0,1-.56,1.656,1.987,1.987,0,0,1-.372.54.533.533,0,0,1-.84,0,2,2,0,0,1-.362-.524,6.55,6.55,0,0,1-.446-1.206,16.465,16.465,0,0,1-.388-1.847c-.077-.481-.137-.964-.187-1.448q-.052-.5-.086-.994-.052-.749-.08-1.5c-.007-.215-.008-.432-.016-.648-.013-.332-.015-.665-.012-1,0-.358.008-.716.02-1.074.014-.4.031-.806.057-1.208.036-.561.083-1.119.146-1.677a22.579,22.579,0,0,1,.354-2.246,9.682,9.682,0,0,1,.5-1.7,3.249,3.249,0,0,1,.344-.637,1.33,1.33,0,0,1,.221-.242.5.5,0,0,1,.7-.017,1.273,1.273,0,0,1,.259.286,3.694,3.694,0,0,1,.411.831,11.736,11.736,0,0,1,.5,1.9c.072.374.131.75.183,1.127s.1.742.129,1.115c.031.347.062.694.089,1.041.018.229.032.457.04.686.009.267.018.535.029.8C-692.783-2622.911-692.791-2622.5-692.791-2622.091Z" transform="translate(730.542 2632.791)" fill="#fff"/>
  </g>
</svg>
