<svg xmlns="http://www.w3.org/2000/svg" width="32.343" height="32.34" viewBox="0 0 32.343 32.34">
  <path id="paper-plane" d="M27.834.434,1.557,15.587a3.032,3.032,0,0,0,.36,5.426L9.137,24v5.331a3.036,3.036,0,0,0,5.47,1.807l2.767-3.733,7.068,2.918A3.038,3.038,0,0,0,28.6,27.98L32.35,3.523A3.038,3.038,0,0,0,27.834.434Zm-15.665,28.9v-4.08l2.312.954ZM25.6,27.519l-9.715-4.011L24.739,10.73a1.012,1.012,0,0,0-1.5-1.339L9.882,21.032,3.073,18.215,29.35,3.055Z" transform="translate(-0.043 -0.025)" fill="#f94381"/>
</svg>
