<svg xmlns="http://www.w3.org/2000/svg" width="30.711" height="25.001" viewBox="0 0 30.711 25.001">
  <path id="Path_22558" data-name="Path 22558" d="M-4945.281,2148.144a4.7,4.7,0,0,1,.481.035c.053,0,.11.006.164.01a10.609,10.609,0,0,0,1.321.02,12.831,12.831,0,0,0,3.03-.492,12.936,12.936,0,0,0,1.907-.725,12.95,12.95,0,0,0,2.238-1.361c.036-.028.081-.047.1-.093-.022-.032-.052-.019-.078-.019a5.328,5.328,0,0,1-1.109-.135,6.118,6.118,0,0,1-1.54-.556,6.461,6.461,0,0,1-1.274-.871,6.26,6.26,0,0,1-1.251-1.5,6.428,6.428,0,0,1-.57-1.23.3.3,0,0,1-.01-.034c-.007-.038,0-.061.047-.052.1.018.193.03.291.046a5.425,5.425,0,0,0,1.105.057,5.966,5.966,0,0,0,1.257-.185c.019,0,.04,0,.051-.031a6.3,6.3,0,0,1-4.15-3.053,6.163,6.163,0,0,1-.827-3.222,6.219,6.219,0,0,0,2.792.784,6.323,6.323,0,0,1-2.7-4.489,6.261,6.261,0,0,1,.81-3.934,18.038,18.038,0,0,0,5.8,4.683,17.831,17.831,0,0,0,7.193,1.919,5.779,5.779,0,0,1-.146-1.207,3.812,3.812,0,0,0,0-.436,6,6,0,0,1,.537-2.366,6.15,6.15,0,0,1,1.086-1.665,6.236,6.236,0,0,1,2.044-1.5,6.316,6.316,0,0,1,1.913-.533,6.289,6.289,0,0,1,1.061-.035,6.2,6.2,0,0,1,2.1.479,6.2,6.2,0,0,1,1.743,1.095,3.169,3.169,0,0,1,.382.368c.034.041.068.037.115.029.255-.05.508-.113.759-.179a12.426,12.426,0,0,0,1.985-.716,11.934,11.934,0,0,0,1.1-.572c.022-.013.04-.038.073-.031a6.17,6.17,0,0,1-2.667,3.439,7.955,7.955,0,0,0,1.789-.34,11.573,11.573,0,0,0,1.725-.614c.017.037-.009.056-.023.076a13.122,13.122,0,0,1-.942,1.226c-.183.211-.374.417-.57.615a11.947,11.947,0,0,1-1.475,1.271.241.241,0,0,0-.11.237c.019.481.022.963,0,1.443a17.649,17.649,0,0,1-.2,1.908,18.58,18.58,0,0,1-.579,2.516,18.839,18.839,0,0,1-.85,2.264,19.02,19.02,0,0,1-1.2,2.249,18.6,18.6,0,0,1-1.482,2.046,17.374,17.374,0,0,1-1.341,1.432,16.51,16.51,0,0,1-1.823,1.516,16.956,16.956,0,0,1-1.769,1.116,17.038,17.038,0,0,1-2.323,1.048,17.5,17.5,0,0,1-1.944.58,17.469,17.469,0,0,1-1.773.327c-.4.053-.81.095-1.217.122-.362.024-.722.047-1.084.045-.4,0-.8.006-1.2-.01q-.517-.02-1.032-.08c-.262-.03-.522-.062-.784-.1-.415-.059-.829-.137-1.239-.228a17.518,17.518,0,0,1-1.9-.534q-.849-.292-1.666-.665a18.039,18.039,0,0,1-2.088-1.129c-.033-.021-.063-.046-.1-.069A.074.074,0,0,0-4945.281,2148.144Z" transform="translate(4945.295 -2125.967)" fill="#fff"/>
</svg>
