<svg xmlns="http://www.w3.org/2000/svg" xmlns:xlink="http://www.w3.org/1999/xlink" width="923" height="919.122" viewBox="0 0 923 919.122">
  <defs>
    <linearGradient id="linear-gradient" x1="0.5" y1="1" x2="0.5" gradientUnits="objectBoundingBox">
      <stop offset="0.14" stop-color="#f2602d"/>
      <stop offset="0.32" stop-color="#f25a34"/>
      <stop offset="0.58" stop-color="#f14847"/>
      <stop offset="0.88" stop-color="#ef2a66"/>
      <stop offset="1" stop-color="#ee1d74"/>
    </linearGradient>
    <filter id="Path_21947" x="0" y="0" width="923" height="919.122" filterUnits="userSpaceOnUse">
      <feOffset input="SourceAlpha"/>
      <feGaussianBlur stdDeviation="44.5" result="blur"/>
      <feFlood flood-color="#ea1774"/>
      <feComposite operator="in" in2="blur"/>
      <feComposite in="SourceGraphic"/>
    </filter>
    <filter id="Path_21947-2" x="0" y="0" width="923" height="919.122" filterUnits="userSpaceOnUse">
      <feOffset input="SourceAlpha"/>
      <feGaussianBlur stdDeviation="44.5" result="blur-2"/>
      <feFlood flood-color="#ea1774"/>
      <feComposite operator="in" in2="blur-2"/>
      <feComposite in="SourceGraphic"/>
    </filter>
  </defs>
  <g id="Group_654" data-name="Group 654" transform="translate(-498.5 -1617.859)">
    <g id="sun" transform="translate(632 1751.359)">
      <g id="Layer_1" data-name="Layer 1" transform="translate(0)">
        <g transform="matrix(1, 0, 0, 1, -133.5, -133.5)" filter="url(#Path_21947)">
          <path id="Path_21947-3" data-name="Path 21947" d="M18.486,436.824H637.507q-3.366,9.647-7.351,18.991H25.83Q21.872,446.464,18.486,436.824ZM165.274,612.862H490.753q10.96-6.274,21.36-13.343H143.921q10.4,7.069,21.353,13.343ZM45.682,495.055H610.338q5.109-8.624,9.707-17.577H35.968q4.6,8.98,9.714,17.6ZM328.01,0C216.046,0,117.182,56.1,58,141.719H598.018C538.832,56.1,439.974,0,328.01,0ZM110.571,573.6H545.449q8.038-7.122,15.6-14.756H94.987q7.553,7.627,15.591,14.756ZM18.115,220.246H637.9q-4.881-14.036-10.966-27.466H29.082Q23,206.2,18.115,220.246ZM7.169,259.507H648.844q-2.807-13.228-6.665-26.052H13.841Q9.983,246.272,7.169,259.507Zm-5.884,39.26H654.728q-1.1-12.447-3.117-24.639H4.4Q2.4,286.306,1.286,298.767ZM0,328.01q0,5.029.155,10.017H655.838c.1-3.326.162-6.665.162-10.017q0-6.638-.269-13.208H.263Q0,321.379,0,328.01Zm12.117,88.544H643.923q2.821-10.1,5-20.4H7.1Q9.277,406.483,12.117,416.554Zm-8.435-39.26H652.318q1.622-10.771,2.538-21.818H1.138Q2.06,366.5,3.682,377.294ZM73.021,534.342H582.979q6.4-7.883,12.3-16.156H60.721q5.924,8.247,12.292,16.156ZM51.108,152.14a327.007,327.007,0,0,0-16.385,28.88H621.3A328.8,328.8,0,0,0,604.9,152.14ZM277.353,652.122H378.674A325.825,325.825,0,0,0,428.927,640.2H227.086a326.064,326.064,0,0,0,50.267,11.922Z" transform="translate(133.5 133.5)" fill="url(#linear-gradient)"/>
        </g>
      </g>
    </g>
    <g id="sun-2" data-name="sun" transform="translate(632 1751.359)">
      <g id="Layer_1-2" data-name="Layer 1" transform="translate(0)">
        <g transform="matrix(1, 0, 0, 1, -133.5, -133.5)" filter="url(#Path_21947-2)">
          <path id="Path_21947-4" data-name="Path 21947" d="M18.486,436.824H637.507q-3.366,9.647-7.351,18.991H25.83Q21.872,446.464,18.486,436.824ZM165.274,612.862H490.753q10.96-6.274,21.36-13.343H143.921q10.4,7.069,21.353,13.343ZM45.682,495.055H610.338q5.109-8.624,9.707-17.577H35.968q4.6,8.98,9.714,17.6ZM328.01,0C216.046,0,117.182,56.1,58,141.719H598.018C538.832,56.1,439.974,0,328.01,0ZM110.571,573.6H545.449q8.038-7.122,15.6-14.756H94.987q7.553,7.627,15.591,14.756ZM18.115,220.246H637.9q-4.881-14.036-10.966-27.466H29.082Q23,206.2,18.115,220.246ZM7.169,259.507H648.844q-2.807-13.228-6.665-26.052H13.841Q9.983,246.272,7.169,259.507Zm-5.884,39.26H654.728q-1.1-12.447-3.117-24.639H4.4Q2.4,286.306,1.286,298.767ZM0,328.01q0,5.029.155,10.017H655.838c.1-3.326.162-6.665.162-10.017q0-6.638-.269-13.208H.263Q0,321.379,0,328.01Zm12.117,88.544H643.923q2.821-10.1,5-20.4H7.1Q9.277,406.483,12.117,416.554Zm-8.435-39.26H652.318q1.622-10.771,2.538-21.818H1.138Q2.06,366.5,3.682,377.294ZM73.021,534.342H582.979q6.4-7.883,12.3-16.156H60.721q5.924,8.247,12.292,16.156ZM51.108,152.14a327.007,327.007,0,0,0-16.385,28.88H621.3A328.8,328.8,0,0,0,604.9,152.14ZM277.353,652.122H378.674A325.825,325.825,0,0,0,428.927,640.2H227.086a326.064,326.064,0,0,0,50.267,11.922Z" transform="translate(133.5 133.5)" fill="url(#linear-gradient)"/>
        </g>
      </g>
    </g>
  </g>
</svg>
