<svg xmlns="http://www.w3.org/2000/svg" width="34.085" height="22.724" viewBox="0 0 34.085 22.724">
  <path id="eye" d="M17.043,68.734a6.565,6.565,0,0,0-1.849.3,3.278,3.278,0,0,1,.428,1.6,3.314,3.314,0,0,1-3.314,3.314,3.278,3.278,0,0,1-1.6-.428,6.611,6.611,0,1,0,6.332-4.779ZM33.88,74.5A18.98,18.98,0,0,0,17.043,64,18.983,18.983,0,0,0,.206,74.5a1.914,1.914,0,0,0,0,1.727,18.98,18.98,0,0,0,16.837,10.5,18.983,18.983,0,0,0,16.837-10.5,1.914,1.914,0,0,0,0-1.727ZM17.043,83.883a16.1,16.1,0,0,1-14.08-8.521,16.1,16.1,0,0,1,14.08-8.521,16.1,16.1,0,0,1,14.08,8.521A16.1,16.1,0,0,1,17.043,83.883Z" transform="translate(-0.001 -64)" fill="#f2612c"/>
</svg>
