<svg xmlns="http://www.w3.org/2000/svg" width="22.234" height="32.34" viewBox="0 0 22.234 32.34">
  <path id="lightbulb" d="M11.117,5.053a6.07,6.07,0,0,0-6.064,6.064,1.011,1.011,0,1,0,2.021,0,4.047,4.047,0,0,1,4.043-4.043,1.011,1.011,0,1,0,0-2.021ZM6.068,29a1,1,0,0,0,.169.558l1.548,2.327a1.011,1.011,0,0,0,.841.451h4.981a1.01,1.01,0,0,0,.841-.451L16,29.562A1.016,1.016,0,0,0,16.166,29l0-2.728H6.065ZM11.117,0A11.111,11.111,0,0,0,2.752,18.431a18.076,18.076,0,0,1,3.311,5.821v0H9.095v-.008a2.989,2.989,0,0,0-.136-.889,19.917,19.917,0,0,0-3.927-6.927,8.085,8.085,0,1,1,12.171,0,19.962,19.962,0,0,0-3.923,6.914,3,3,0,0,0-.14.9v.006h3.032v0a18.063,18.063,0,0,1,3.311-5.821A11.112,11.112,0,0,0,11.117,0Z" fill="#ee1c75"/>
</svg>
