<svg xmlns="http://www.w3.org/2000/svg" xmlns:xlink="http://www.w3.org/1999/xlink" width="1930.32" height="657.813" viewBox="0 0 1930.32 657.813">
  <defs>
    <linearGradient id="linear-gradient" x1="0.5" y1="0.046" x2="0.5" y2="0.904" gradientUnits="objectBoundingBox">
      <stop offset="0" stop-color="#841980"/>
      <stop offset="0.287" stop-color="#50146e"/>
      <stop offset="0.728" stop-color="#150035"/>
      <stop offset="1" stop-color="#130033"/>
    </linearGradient>
  </defs>
  <path id="Union_2" data-name="Union 2" d="M7394.469-6862.187v-118.68a5.662,5.662,0,0,1,0-4.5v-3.818h3.075c2.08-1.812,4.637-3.418,6.4-5.108,27.894-26.667,55.473-53.723,84.548-79.054,10.223-8.91,19.486-21.95,36.057-20.946,10.361-15.658,32.852-14.792,42.632-31.7,5.117-8.842,27.917-16.311,37.734-13.829,6.086,1.54,11.316.758,17.088-2.719,12.139-7.308,27.21-8.929,37.756-19.84,3.257-3.367,7.906-.257,10.738,2.55,11.088,11,26.625,14.748,38.687,24.157,3.589,2.8,21.363-2.066,23.478-6.282a30.917,30.917,0,0,1,18.468-16.227c8.814-3,14.617-9.376,18.972-17.556,6.486-12.188,25.67-20.691,38.942-17.448,3.662.891,8.185,2.347,10.373-.218,9.914-11.622,26.028-13.112,36.635-23.1,8.772-8.257,17.17-9.727,26.555-1.631,4.97,4.287,8.33,7.513,13.017-1.764,2.789-5.524,11.769-7.649,17.336-12.092,30.167-24.077,60.059-48.493,90.231-72.563,6.254-4.991,13.187-9.16,20-13.4,2.289-1.422,5.892-3.386,7.672-2.539,11.98,5.7,19.631-2.7,28.3-7.9,24.1-14.465,48.671-27.933,75.706-36.284,1.917-.59,4.013-1.06,5.595-2.186,17.437-12.4,34.814-14.659,52.609-.583,3.269,2.585,8.54,3.257,11.554,1.226,11.669-7.876,26.856-8.363,37.4-18.244,3.652-3.425,8.032-5.126,12.645-6.7,5.29-1.8,12.011-2.644,14.664-7.684,6.811-12.93,20.323-14.479,31.377-20.221,1.406-.732,3.178-1.783,4.5-1.483,23.593,5.358,42.356-6.046,61.129-17.42,3.854-2.335,7.45-2.359,11.275.056,28.425,17.956,59.552,31.742,84.378,55.258,7.169,6.792,18.587,5.608,25.3-1.834,16.287-18.057,16.3-18.078,32.351-.648,3.6,3.91,7.274,7.333,13,7.935a15.6,15.6,0,0,1,11.072,6.734c6.093,8.646,13.129,9.788,21.571,3.673,1.668-1.209,4.336-2.819,5.419-1.345,7.715,10.513,24.079,10.924,28.8,24.643,4.39,12.773,11.692,22.619,24.6,28.043,6.678,2.806,9.938,9.128,12.423,15.651,1.688,4.432,4.4,5.286,9.354,6.549,10.447,2.665,16.746.075,21.7-8.627.381-.672,1.106-1.58,1.72-1.617,16.812-1.032,23.506-18.405,37.931-23.412,6.025-2.092,12.612-4.577,15.569-10.729,9.634-20.027,26.74-22.591,46.067-20.769,2.342.223,5.508.457,7.033-.819,10.157-8.479,22.4-12.878,34.015-18.625,13.154-6.51,23.125-18.6,38.113-22.2a6.851,6.851,0,0,0,4.018-4.027c4.009-12.373,13.239-19.615,23.874-25.951,8.149-4.858,10.655-13.882,13.791-22.086,2.752-7.207,4.71-14.023,14.1-16.051,4.043-.875,7.333-5.934,10.623-9.418,3.455-3.652,6.638-5.613,11.247-1.654,4.928,4.233,9.308,2.2,14.051-1.212a117.154,117.154,0,0,0,26.33-26.171c12.148-16.526,18.965-16.456,30.788-.131a123.1,123.1,0,0,0,26.228,26.333c4.8,3.61,8.984,5.04,14.063,1.156,1.9-1.453,5.084-4.006,6.287-2.3,7.356,10.447,22.916,11.963,27.681,24.351,5.657,14.715,12.268,27.973,27.649,34.663,1.408.613,3.1,1.794,3.592,3.109,9.235,24.76,35.315,29.33,53.442,43.065,8.669,6.573,20.3,11.7,30.8,16.375,9.884,4.4,22.525.852,33.979,3.8,6.49,1.673,11.145,3.655,13.966,9.551,5.15,10.758,13.338,17.933,24.838,21.257.768.225,1.844.365,2.192.915,9.423,14.849,29.4,15.492,39.489,29.391,2.822,3.884,6.032,4.329,10.474,2.363,8.047-3.566,11.107.9,11.65,8.292.1,1.35.131,2.707.138,4.064v1.09c0,1.1-.019,2.192-.019,3.288q.01,139.941,0,279.885c0,9.687-.012,14.146-2.836,16.2v117.711Z" transform="translate(-7393.503 7519.5)" stroke="rgba(0,0,0,0)" stroke-width="1" fill="url(#linear-gradient)"/>
</svg>
