<svg xmlns="http://www.w3.org/2000/svg" xmlns:xlink="http://www.w3.org/1999/xlink" width="683.857" height="372.978" viewBox="0 0 683.857 372.978">
  <defs>
    <clipPath id="clip-path">
      <rect id="Rectangle_597" data-name="Rectangle 597" width="375.018" height="372.978" fill="none"/>
    </clipPath>
    <clipPath id="clip-path-3">
      <rect id="Rectangle_595" data-name="Rectangle 595" width="251.956" height="231.133" fill="none"/>
    </clipPath>
  </defs>
  <g id="Group_726" data-name="Group 726" transform="translate(-870 -8771.488)">
    <path id="Path_22567" data-name="Path 22567" d="M177.972,0c98.291,0,177.972,79.883,177.972,178.423a180.357,180.357,0,0,1-4.616,40.549C333.269,297.765,262.5,356.846,177.972,356.846,79.681,356.846,0,276.963,0,178.423S79.681,0,177.972,0Z" transform="translate(1197.662 8779.554)" fill="none" stroke="#6cc6cc" stroke-width="0.5"/>
    <path id="Path_22559" data-name="Path 22559" d="M177.972,0c98.291,0,177.972,79.883,177.972,178.423a180.357,180.357,0,0,1-4.616,40.549C333.269,297.765,262.5,356.846,177.972,356.846,79.681,356.846,0,276.963,0,178.423S79.681,0,177.972,0Z" transform="translate(914.885 8779.554)" fill="none" stroke="#6cc6cc" stroke-width="4.5"/>
    <path id="Path_22560" data-name="Path 22560" d="M177.972,0c98.291,0,177.972,79.883,177.972,178.423a180.357,180.357,0,0,1-4.616,40.549C333.269,297.765,262.5,356.846,177.972,356.846,79.681,356.846,0,276.963,0,178.423S79.681,0,177.972,0Z" transform="translate(950.232 8779.554)" fill="none" stroke="#6cc6cc" stroke-width="4"/>
    <path id="Path_22561" data-name="Path 22561" d="M177.972,0c98.291,0,177.972,79.883,177.972,178.423a180.357,180.357,0,0,1-4.616,40.549C333.269,297.765,262.5,356.846,177.972,356.846,79.681,356.846,0,276.963,0,178.423S79.681,0,177.972,0Z" transform="translate(985.579 8779.554)" fill="none" stroke="#6cc6cc" stroke-width="3.5"/>
    <path id="Path_22562" data-name="Path 22562" d="M177.972,0c98.291,0,177.972,79.883,177.972,178.423a180.357,180.357,0,0,1-4.616,40.549C333.269,297.765,262.5,356.846,177.972,356.846,79.681,356.846,0,276.963,0,178.423S79.681,0,177.972,0Z" transform="translate(1020.926 8779.554)" fill="none" stroke="#6cc6cc" stroke-width="3"/>
    <path id="Path_22563" data-name="Path 22563" d="M177.972,0c98.291,0,177.972,79.883,177.972,178.423a180.357,180.357,0,0,1-4.616,40.549C333.269,297.765,262.5,356.846,177.972,356.846,79.681,356.846,0,276.963,0,178.423S79.681,0,177.972,0Z" transform="translate(1056.274 8779.554)" fill="none" stroke="#6cc6cc" stroke-width="2.5"/>
    <path id="Path_22564" data-name="Path 22564" d="M177.972,0c98.291,0,177.972,79.883,177.972,178.423a180.357,180.357,0,0,1-4.616,40.549C333.269,297.765,262.5,356.846,177.972,356.846,79.681,356.846,0,276.963,0,178.423S79.681,0,177.972,0Z" transform="translate(1091.621 8779.554)" fill="none" stroke="#6cc6cc" stroke-width="2"/>
    <path id="Path_22565" data-name="Path 22565" d="M177.972,0c98.291,0,177.972,79.883,177.972,178.423a180.357,180.357,0,0,1-4.616,40.549C333.269,297.765,262.5,356.846,177.972,356.846,79.681,356.846,0,276.963,0,178.423S79.681,0,177.972,0Z" transform="translate(1126.968 8779.554)" fill="none" stroke="#6cc6cc" stroke-width="1.5"/>
    <path id="Path_22566" data-name="Path 22566" d="M177.972,0c98.291,0,177.972,79.883,177.972,178.423a180.357,180.357,0,0,1-4.616,40.549C333.269,297.765,262.5,356.846,177.972,356.846,79.681,356.846,0,276.963,0,178.423S79.681,0,177.972,0Z" transform="translate(1162.315 8779.554)" fill="none" stroke="#6cc6cc" stroke-width="1"/>
    <g id="Group_696" data-name="Group 696" transform="translate(870 8771.488)">
      <g id="Group_695" data-name="Group 695" transform="translate(0 0)" clip-path="url(#clip-path)">
        <g id="Group_694" data-name="Group 694" transform="translate(0)">
          <g id="Group_693" data-name="Group 693" clip-path="url(#clip-path)">
            <path id="Path_22557" data-name="Path 22557" d="M177.972,0c72.146,0,134.265,43.033,162.234,104.947A178.053,178.053,0,0,1,355.944,178.4a180.319,180.319,0,0,1-4.616,40.545C333.269,297.732,262.5,356.807,177.972,356.807,79.681,356.807,0,276.933,0,178.4S79.681,0,177.972,0Z" transform="translate(9.537 8.085)" fill="#2b0541" stroke="#6cc6cc" stroke-width="5.87"/>
            <path id="Path_22549" data-name="Path 22549" d="M151.155,352c-13.521,0-23.717-10.349-23.717-24.074V193.44h-5.08c-13.3,0-23.717-10.574-23.717-24.073V145.629c0-13.5,10.418-24.073,23.717-24.073h80.283c13.521,0,23.717,10.35,23.717,24.073v23.737c0,13.724-10.2,24.073-23.717,24.073H197.56V327.929c0,13.724-10.2,24.074-23.717,24.074Z" transform="translate(-36.779 -47.985)" fill="#d50077"/>
            <path id="Path_22550" data-name="Path 22550" d="M389.023,352a24.947,24.947,0,0,1-22.734-13.909A23.992,23.992,0,0,1,344.083,352H323.139c-14.018,0-24.59-10.758-24.59-25.023v-180.4c0-14.266,10.571-25.023,24.59-25.023h20.944a24.025,24.025,0,0,1,21.3,12.152,25.077,25.077,0,0,1,21.672-12.152h22.906a23.785,23.785,0,0,1,20.262,10.776c4.431,6.936,4.872,15.517,1.218,23.562l-33.493,74.812L433.938,318.1A23.521,23.521,0,0,1,412.148,352Z" transform="translate(-123.246 -47.985)" fill="#d50077"/>
            <path id="Path_22551" data-name="Path 22551" d="M154.506,350.936c-11.015,0-19.321-8.455-19.321-19.666v-138.9h-9.477c-11.015,0-19.321-8.454-19.321-19.666V148.971c0-11.211,8.306-19.666,19.321-19.666h80.283c11.015,0,19.32,8.454,19.32,19.666v23.737c0,11.211-8.305,19.666-19.32,19.666h-9.477v138.9c0,11.4-8.126,19.666-19.321,19.666Z" transform="translate(-40.131 -51.326)" fill="#1a1818"/>
            <path id="Path_22552" data-name="Path 22552" d="M392.375,350.936a20.493,20.493,0,0,1-19.8-13.76l-4.944-12.681v5.826c0,11.753-8.681,20.616-20.193,20.616H326.49c-11.512,0-20.193-8.863-20.193-20.616V149.92c0-11.753,8.681-20.616,20.193-20.616h20.944c11.42,0,20.054,8.722,20.191,20.335l3.391-7.547c3.736-8.127,10.805-12.788,19.395-12.788h22.906a19.413,19.413,0,0,1,16.559,8.744c3.611,5.654,3.943,12.709.914,19.369l-34.273,76.555,36.737,89.22A19.123,19.123,0,0,1,415.5,350.936Z" transform="translate(-126.598 -51.326)" fill="#1a1818"/>
            <path id="Path_22553" data-name="Path 22553" d="M163.22,348.161c-4.718,0-7.888-3.3-7.888-8.206V189.6H134.423c-4.645,0-7.888-3.374-7.888-8.206V157.657c0-4.832,3.243-8.206,7.888-8.206h80.283c4.718,0,7.888,3.3,7.888,8.206v23.737c0,4.908-3.17,8.206-7.888,8.206H193.8V339.955c0,5.062-3.022,8.206-7.888,8.206Z" transform="translate(-48.845 -60.012)" fill="#fff"/>
            <path id="Path_22554" data-name="Path 22554" d="M401.089,348.161a9.225,9.225,0,0,1-9.127-6.4l-23.792-61.02-3.261,6.809v51.455c0,5.476-3.52,9.156-8.76,9.156H335.2c-5.239,0-8.76-3.679-8.76-9.156v-180.4c0-5.476,3.521-9.155,8.76-9.155h20.944c5.24,0,8.76,3.679,8.76,9.155v53.065l25.19-56.062c2.342-5.1,6.2-6.158,9.027-6.158h22.906a7.954,7.954,0,0,1,6.931,3.464c.872,1.365,2.048,4.284.117,8.484l-36.294,81.07L431.5,336.488a8.32,8.32,0,0,1-.064,8.072,8.178,8.178,0,0,1-7.222,3.6Z" transform="translate(-135.312 -60.012)" fill="#fff"/>
            <path id="Path_22555" data-name="Path 22555" d="M165.231,347.521c-3.287,0-5.25-2.079-5.25-5.561v-153H136.434c-3.14,0-5.25-2.234-5.25-5.561V159.661c0-3.326,2.11-5.561,5.25-5.561h80.283c3.287,0,5.249,2.079,5.249,5.561V183.4c0,3.482-1.962,5.561-5.249,5.561H193.169v153c0,4.838-3.288,5.561-5.25,5.561Z" transform="translate(-50.856 -62.016)" fill="#46baec"/>
            <path id="Path_22556" data-name="Path 22556" d="M403.1,347.521a6.588,6.588,0,0,1-6.668-4.713l-26-66.69-6.147,12.835v52.057c0,4.077-2.289,6.51-6.122,6.51H337.215c-3.833,0-6.122-2.434-6.122-6.51V160.61c0-4.076,2.289-6.51,6.122-6.51h20.944c3.833,0,6.122,2.434,6.122,6.51v65.377L394.514,158.7c1.425-3.1,3.589-4.6,6.622-4.6h22.906a5.313,5.313,0,0,1,4.709,2.246c1,1.573.984,3.686-.057,5.952l-36.77,82.133L431.1,339.572a5.7,5.7,0,0,1,.1,5.6,5.544,5.544,0,0,1-4.979,2.351Z" transform="translate(-137.322 -62.016)" fill="#46baec"/>
          </g>
        </g>
      </g>
    </g>
  </g>
</svg>
